999
"DXF R12 Output" (www.mydxf.blogspot.com)
 0 
SECTION
 2 
HEADER
 9 
$ACADVER
 1 
AC1009
 9 
$EXTMIN
 10 
 0 
 20 
 0 
 9 
$EXTMAX
 10 
 8.5 
 20 
 11 
 0 
ENDSEC
 0 
SECTION
 2 
ENTITIES
0
POLYLINE
8
Layer 1
62
150
70
0
10
0.000000
20
0.000000
66
1
0
VERTEX
8
Layer 1
10
443.756376
20
375.937768
70
0
0
VERTEX
8
Layer 1
10
444.326672
20
377.836394
70
0
0
VERTEX
8
Layer 1
10
445.107423
20
379.668885
70
0
0
VERTEX
8
Layer 1
10
446.091733
20
381.435439
70
0
0
VERTEX
8
Layer 1
10
447.272703
20
383.136254
70
0
0
VERTEX
8
Layer 1
10
448.643440
20
384.771528
70
0
0
VERTEX
8
Layer 1
10
450.197045
20
386.341459
70
0
0
VERTEX
8
Layer 1
10
451.926623
20
387.846243
70
0
0
VERTEX
8
Layer 1
10
453.825278
20
389.286079
70
0
0
VERTEX
8
Layer 1
10
458.102230
20
391.971695
70
0
0
VERTEX
8
Layer 1
10
462.972731
20
394.399890
70
0
0
VERTEX
8
Layer 1
10
468.381609
20
396.572243
70
0
0
VERTEX
8
Layer 1
10
474.273695
20
398.490337
70
0
0
VERTEX
8
Layer 1
10
480.593817
20
400.155751
70
0
0
VERTEX
8
Layer 1
10
487.286804
20
401.570068
70
0
0
VERTEX
8
Layer 1
10
494.297485
20
402.734868
70
0
0
VERTEX
8
Layer 1
10
501.570689
20
403.651732
70
0
0
VERTEX
8
Layer 1
10
509.051246
20
404.322242
70
0
0
VERTEX
8
Layer 1
10
516.683984
20
404.747978
70
0
0
VERTEX
8
Layer 1
10
524.413732
20
404.930522
70
0
0
VERTEX
8
Layer 1
10
532.185320
20
404.871454
70
0
0
VERTEX
8
Layer 1
10
539.943577
20
404.572357
70
0
0
VERTEX
8
Layer 1
10
547.633331
20
404.034810
70
0
0
VERTEX
8
Layer 1
10
555.199412
20
403.260395
70
0
0
VERTEX
8
Layer 1
10
562.586648
20
402.250693
70
0
0
VERTEX
8
Layer 1
10
569.739870
20
401.007285
70
0
0
VERTEX
8
Layer 1
10
576.603905
20
399.531752
70
0
0
VERTEX
8
Layer 1
10
583.123584
20
397.825676
70
0
0
VERTEX
8
Layer 1
10
589.243734
20
395.890637
70
0
0
VERTEX
8
Layer 1
10
594.909186
20
393.728217
70
0
0
VERTEX
8
Layer 1
10
600.064768
20
391.339996
70
0
0
VERTEX
8
Layer 1
10
604.655309
20
388.727555
70
0
0
VERTEX
8
Layer 1
10
608.625638
20
385.892476
70
0
0
VERTEX
8
Layer 1
10
610.360983
20
384.391942
70
0
0
VERTEX
8
Layer 1
10
611.920585
20
382.836341
70
0
0
VERTEX
8
Layer 1
10
613.297549
20
381.225870
70
0
0
VERTEX
8
Layer 1
10
614.484979
20
379.560728
70
0
0
VERTEX
8
Layer 1
10
615.475977
20
377.841113
70
0
0
VERTEX
8
Layer 1
10
616.263648
20
376.067221
70
0
0
VERTEX
8
Layer 1
10
616.841094
20
374.239251
70
0
0
VERTEX
8
Layer 1
10
617.201421
20
372.357400
70
0
0
VERTEX
8
Layer 1
10
627.544415
20
294.187736
70
0
0
VERTEX
8
Layer 1
10
627.859784
20
282.299225
70
0
0
VERTEX
8
Layer 1
10
628.435155
20
255.655982
70
0
0
VERTEX
8
Layer 1
10
628.714423
20
227.791441
70
0
0
VERTEX
8
Layer 1
10
628.569235
20
217.630382
70
0
0
VERTEX
8
Layer 1
10
628.395024
20
214.232765
70
0
0
VERTEX
8
Layer 1
10
628.141483
20
212.239037
70
0
0
VERTEX
8
Layer 1
10
627.447731
20
210.125023
70
0
0
VERTEX
8
Layer 1
10
626.499903
20
208.327865
70
0
0
VERTEX
8
Layer 1
10
625.339233
20
206.822660
70
0
0
VERTEX
8
Layer 1
10
624.006955
20
205.584507
70
0
0
VERTEX
8
Layer 1
10
622.544301
20
204.588506
70
0
0
VERTEX
8
Layer 1
10
620.992507
20
203.809754
70
0
0
VERTEX
8
Layer 1
10
619.392806
20
203.223352
70
0
0
VERTEX
8
Layer 1
10
617.786431
20
202.804397
70
0
0
VERTEX
8
Layer 1
10
614.718598
20
202.369225
70
0
0
VERTEX
8
Layer 1
10
612.118877
20
202.305028
70
0
0
VERTEX
8
Layer 1
10
609.643256
20
202.492723
70
0
0
VERTEX
8
Layer 1
10
609.678871
20
195.542638
70
0
0
VERTEX
8
Layer 1
10
609.627256
20
189.527208
70
0
0
VERTEX
8
Layer 1
10
609.443909
20
184.193454
70
0
0
VERTEX
8
Layer 1
10
609.016308
20
181.741309
70
0
0
VERTEX
8
Layer 1
10
608.103299
20
179.627707
70
0
0
VERTEX
8
Layer 1
10
606.774942
20
177.849456
70
0
0
VERTEX
8
Layer 1
10
605.101294
20
176.403360
70
0
0
VERTEX
8
Layer 1
10
603.152416
20
175.286227
70
0
0
VERTEX
8
Layer 1
10
600.998365
20
174.494860
70
0
0
VERTEX
8
Layer 1
10
598.709202
20
174.026068
70
0
0
VERTEX
8
Layer 1
10
596.354984
20
173.876655
70
0
0
VERTEX
8
Layer 1
10
594.005772
20
174.043428
70
0
0
VERTEX
8
Layer 1
10
591.731623
20
174.523192
70
0
0
VERTEX
8
Layer 1
10
589.602598
20
175.312753
70
0
0
VERTEX
8
Layer 1
10
587.688754
20
176.408918
70
0
0
VERTEX
8
Layer 1
10
586.060151
20
177.808493
70
0
0
VERTEX
8
Layer 1
10
584.786848
20
179.508283
70
0
0
VERTEX
8
Layer 1
10
583.938903
20
181.505094
70
0
0
VERTEX
8
Layer 1
10
583.586377
20
183.795732
70
0
0
VERTEX
8
Layer 1
10
583.624058
20
194.802636
70
0
0
VERTEX
8
Layer 1
10
583.785723
20
202.095196
70
0
0
VERTEX
8
Layer 1
10
477.968197
20
201.498128
70
0
0
VERTEX
8
Layer 1
10
477.570476
20
187.376003
70
0
0
VERTEX
8
Layer 1
10
477.451013
20
185.685870
70
0
0
VERTEX
8
Layer 1
10
477.176787
20
184.107596
70
0
0
VERTEX
8
Layer 1
10
476.758351
20
182.640778
70
0
0
VERTEX
8
Layer 1
10
476.206255
20
181.285016
70
0
0
VERTEX
8
Layer 1
10
475.531054
20
180.039906
70
0
0
VERTEX
8
Layer 1
10
474.743300
20
178.905047
70
0
0
VERTEX
8
Layer 1
10
472.872344
20
176.964470
70
0
0
VERTEX
8
Layer 1
10
470.677808
20
175.460069
70
0
0
VERTEX
8
Layer 1
10
468.244115
20
174.388624
70
0
0
VERTEX
8
Layer 1
10
465.655685
20
173.746919
70
0
0
VERTEX
8
Layer 1
10
462.996939
20
173.531736
70
0
0
VERTEX
8
Layer 1
10
460.352301
20
173.739857
70
0
0
VERTEX
8
Layer 1
10
457.806190
20
174.368065
70
0
0
VERTEX
8
Layer 1
10
455.443030
20
175.413141
70
0
0
VERTEX
8
Layer 1
10
453.347240
20
176.871868
70
0
0
VERTEX
8
Layer 1
10
451.603244
20
178.741029
70
0
0
VERTEX
8
Layer 1
10
450.889549
20
179.828516
70
0
0
VERTEX
8
Layer 1
10
450.295461
20
181.017405
70
0
0
VERTEX
8
Layer 1
10
449.831532
20
182.307294
70
0
0
VERTEX
8
Layer 1
10
449.508315
20
183.697780
70
0
0
VERTEX
8
Layer 1
10
449.336362
20
185.188461
70
0
0
VERTEX
8
Layer 1
10
449.326226
20
186.778935
70
0
0
VERTEX
8
Layer 1
10
449.178782
20
195.970505
70
0
0
VERTEX
8
Layer 1
10
448.928505
20
202.890250
70
0
0
VERTEX
8
Layer 1
10
446.330175
20
202.850893
70
0
0
VERTEX
8
Layer 1
10
443.665046
20
203.054208
70
0
0
VERTEX
8
Layer 1
10
440.607302
20
203.630641
70
0
0
VERTEX
8
Layer 1
10
439.052613
20
204.111384
70
0
0
VERTEX
8
Layer 1
10
437.545465
20
204.748534
70
0
0
VERTEX
8
Layer 1
10
436.134424
20
205.563134
70
0
0
VERTEX
8
Layer 1
10
434.868056
20
206.576228
70
0
0
VERTEX
8
Layer 1
10
433.794925
20
207.808856
70
0
0
VERTEX
8
Layer 1
10
432.963596
20
209.282063
70
0
0
VERTEX
8
Layer 1
10
432.422635
20
211.016891
70
0
0
VERTEX
8
Layer 1
10
432.220607
20
213.034383
70
0
0
VERTEX
8
Layer 1
10
432.618328
20
295.182039
70
0
0
VERTEX
8
Layer 1
10
435.945517
20
321.505603
70
0
0
VERTEX
8
Layer 1
10
438.444145
20
342.926380
70
0
0
VERTEX
8
Layer 1
10
439.601550
20
352.179333
70
0
0
VERTEX
8
Layer 1
10
440.814377
20
360.663920
70
0
0
VERTEX
8
Layer 1
10
442.170145
20
368.532584
70
0
0
VERTEX
8
Layer 1
10
443.756376
20
375.937768
70
0
0
VERTEX
8
Layer 1
10
443.756376
20
375.937768
70
0
0
SEQEND
8
Layer 1
0
POLYLINE
8
Layer 1
62
150
70
0
10
0.000000
20
0.000000
66
1
0
VERTEX
8
Layer 1
10
463.437767
20
259.875642
70
0
0
VERTEX
8
Layer 1
10
461.402832
20
259.723182
70
0
0
VERTEX
8
Layer 1
10
459.445853
20
259.277884
70
0
0
VERTEX
8
Layer 1
10
457.593957
20
258.557875
70
0
0
VERTEX
8
Layer 1
10
455.874270
20
257.581280
70
0
0
VERTEX
8
Layer 1
10
454.313917
20
256.366223
70
0
0
VERTEX
8
Layer 1
10
452.940025
20
254.930829
70
0
0
VERTEX
8
Layer 1
10
451.779721
20
253.293224
70
0
0
VERTEX
8
Layer 1
10
450.860130
20
251.471533
70
0
0
VERTEX
8
Layer 1
10
450.222249
20
249.533155
70
0
0
VERTEX
8
Layer 1
10
449.884747
20
247.554734
70
0
0
VERTEX
8
Layer 1
10
449.841258
20
245.568270
70
0
0
VERTEX
8
Layer 1
10
450.085419
20
243.605759
70
0
0
VERTEX
8
Layer 1
10
450.610865
20
241.699198
70
0
0
VERTEX
8
Layer 1
10
451.411230
20
239.880587
70
0
0
VERTEX
8
Layer 1
10
452.480150
20
238.181921
70
0
0
VERTEX
8
Layer 1
10
453.811261
20
236.635199
70
0
0
VERTEX
8
Layer 1
10
455.357983
20
235.304089
70
0
0
VERTEX
8
Layer 1
10
457.056648
20
234.235168
70
0
0
VERTEX
8
Layer 1
10
458.875260
20
233.434803
70
0
0
VERTEX
8
Layer 1
10
460.781820
20
232.909358
70
0
0
VERTEX
8
Layer 1
10
462.744331
20
232.665197
70
0
0
VERTEX
8
Layer 1
10
464.730796
20
232.708685
70
0
0
VERTEX
8
Layer 1
10
466.709216
20
233.046188
70
0
0
VERTEX
8
Layer 1
10
468.647595
20
233.684069
70
0
0
VERTEX
8
Layer 1
10
470.469286
20
234.603660
70
0
0
VERTEX
8
Layer 1
10
472.106891
20
235.763964
70
0
0
VERTEX
8
Layer 1
10
473.542284
20
237.137855
70
0
0
VERTEX
8
Layer 1
10
474.757341
20
238.698208
70
0
0
VERTEX
8
Layer 1
10
475.733937
20
240.417896
70
0
0
VERTEX
8
Layer 1
10
476.453946
20
242.269792
70
0
0
VERTEX
8
Layer 1
10
476.899243
20
244.226771
70
0
0
VERTEX
8
Layer 1
10
477.051703
20
246.261706
70
0
0
VERTEX
8
Layer 1
10
476.775116
20
249.005389
70
0
0
VERTEX
8
Layer 1
10
475.981853
20
251.560864
70
0
0
VERTEX
8
Layer 1
10
474.726657
20
253.873387
70
0
0
VERTEX
8
Layer 1
10
473.064274
20
255.888212
70
0
0
VERTEX
8
Layer 1
10
471.049448
20
257.550595
70
0
0
VERTEX
8
Layer 1
10
468.736926
20
258.805791
70
0
0
VERTEX
8
Layer 1
10
466.181450
20
259.599055
70
0
0
VERTEX
8
Layer 1
10
463.437767
20
259.875642
70
0
0
VERTEX
8
Layer 1
10
463.437767
20
259.875642
70
0
0
SEQEND
8
Layer 1
0
POLYLINE
8
Layer 1
62
150
70
0
10
0.000000
20
0.000000
66
1
0
VERTEX
8
Layer 1
10
597.002440
20
259.477726
70
0
0
VERTEX
8
Layer 1
10
594.967505
20
259.325266
70
0
0
VERTEX
8
Layer 1
10
593.010526
20
258.879968
70
0
0
VERTEX
8
Layer 1
10
591.158630
20
258.159960
70
0
0
VERTEX
8
Layer 1
10
589.438943
20
257.183364
70
0
0
VERTEX
8
Layer 1
10
587.878590
20
255.968307
70
0
0
VERTEX
8
Layer 1
10
586.504698
20
254.532913
70
0
0
VERTEX
8
Layer 1
10
585.344394
20
252.895308
70
0
0
VERTEX
8
Layer 1
10
584.424803
20
251.073618
70
0
0
VERTEX
8
Layer 1
10
583.786922
20
249.135239
70
0
0
VERTEX
8
Layer 1
10
583.449420
20
247.156818
70
0
0
VERTEX
8
Layer 1
10
583.405931
20
245.170354
70
0
0
VERTEX
8
Layer 1
10
583.650092
20
243.207843
70
0
0
VERTEX
8
Layer 1
10
584.175538
20
241.301283
70
0
0
VERTEX
8
Layer 1
10
584.975903
20
239.482671
70
0
0
VERTEX
8
Layer 1
10
586.044823
20
237.784005
70
0
0
VERTEX
8
Layer 1
10
587.375934
20
236.237283
70
0
0
VERTEX
8
Layer 1
10
588.922656
20
234.906173
70
0
0
VERTEX
8
Layer 1
10
590.621321
20
233.837252
70
0
0
VERTEX
8
Layer 1
10
592.439933
20
233.036887
70
0
0
VERTEX
8
Layer 1
10
594.346493
20
232.511442
70
0
0
VERTEX
8
Layer 1
10
596.309004
20
232.267281
70
0
0
VERTEX
8
Layer 1
10
598.295469
20
232.310769
70
0
0
VERTEX
8
Layer 1
10
600.273889
20
232.648272
70
0
0
VERTEX
8
Layer 1
10
602.212268
20
233.286153
70
0
0
VERTEX
8
Layer 1
10
604.033959
20
234.205744
70
0
0
VERTEX
8
Layer 1
10
605.671564
20
235.366048
70
0
0
VERTEX
8
Layer 1
10
607.106957
20
236.739940
70
0
0
VERTEX
8
Layer 1
10
608.322014
20
238.300292
70
0
0
VERTEX
8
Layer 1
10
609.298610
20
240.019980
70
0
0
VERTEX
8
Layer 1
10
610.018619
20
241.871876
70
0
0
VERTEX
8
Layer 1
10
610.463916
20
243.828855
70
0
0
VERTEX
8
Layer 1
10
610.616376
20
245.863790
70
0
0
VERTEX
8
Layer 1
10
610.339789
20
248.607473
70
0
0
VERTEX
8
Layer 1
10
609.546526
20
251.162948
70
0
0
VERTEX
8
Layer 1
10
608.291330
20
253.475471
70
0
0
VERTEX
8
Layer 1
10
606.628947
20
255.490296
70
0
0
VERTEX
8
Layer 1
10
604.614121
20
257.152679
70
0
0
VERTEX
8
Layer 1
10
602.301599
20
258.407875
70
0
0
VERTEX
8
Layer 1
10
599.746123
20
259.201139
70
0
0
VERTEX
8
Layer 1
10
597.002440
20
259.477726
70
0
0
VERTEX
8
Layer 1
10
597.002440
20
259.477726
70
0
0
SEQEND
8
Layer 1
0
POLYLINE
8
Layer 1
62
150
70
0
10
0.000000
20
0.000000
66
1
0
VERTEX
8
Layer 1
10
466.023637
20
363.416821
70
0
0
VERTEX
8
Layer 1
10
463.743080
20
363.278021
70
0
0
VERTEX
8
Layer 1
10
461.913380
20
362.918698
70
0
0
VERTEX
8
Layer 1
10
460.482175
20
362.358834
70
0
0
VERTEX
8
Layer 1
10
459.397102
20
361.618408
70
0
0
VERTEX
8
Layer 1
10
458.605799
20
360.717399
70
0
0
VERTEX
8
Layer 1
10
458.055902
20
359.675789
70
0
0
VERTEX
8
Layer 1
10
457.695049
20
358.513556
70
0
0
VERTEX
8
Layer 1
10
457.470876
20
357.250680
70
0
0
VERTEX
8
Layer 1
10
453.251504
20
324.248725
70
0
0
VERTEX
8
Layer 1
10
450.906917
20
302.551928
70
0
0
VERTEX
8
Layer 1
10
450.913772
20
301.202651
70
0
0
VERTEX
8
Layer 1
10
451.177742
20
299.773829
70
0
0
VERTEX
8
Layer 1
10
451.672292
20
298.345256
70
0
0
VERTEX
8
Layer 1
10
452.370889
20
296.996725
70
0
0
VERTEX
8
Layer 1
10
453.246998
20
295.808028
70
0
0
VERTEX
8
Layer 1
10
454.274083
20
294.858958
70
0
0
VERTEX
8
Layer 1
10
455.425610
20
294.229310
70
0
0
VERTEX
8
Layer 1
10
456.675045
20
293.998875
70
0
0
VERTEX
8
Layer 1
10
531.474069
20
293.736685
70
0
0
VERTEX
8
Layer 1
10
568.359211
20
293.749312
70
0
0
VERTEX
8
Layer 1
10
603.864739
20
293.998875
70
0
0
VERTEX
8
Layer 1
10
605.965892
20
294.116350
70
0
0
VERTEX
8
Layer 1
10
607.592165
20
294.400509
70
0
0
VERTEX
8
Layer 1
10
608.798046
20
294.836473
70
0
0
VERTEX
8
Layer 1
10
609.638020
20
295.409364
70
0
0
VERTEX
8
Layer 1
10
610.166577
20
296.104301
70
0
0
VERTEX
8
Layer 1
10
610.438201
20
296.906406
70
0
0
VERTEX
8
Layer 1
10
610.507380
20
297.800799
70
0
0
VERTEX
8
Layer 1
10
610.428601
20
298.772602
70
0
0
VERTEX
8
Layer 1
10
606.718548
20
327.953369
70
0
0
VERTEX
8
Layer 1
10
604.698336
20
342.959181
70
0
0
VERTEX
8
Layer 1
10
602.472520
20
357.250680
70
0
0
VERTEX
8
Layer 1
10
601.748802
20
359.990497
70
0
0
VERTEX
8
Layer 1
10
601.271685
20
360.958182
70
0
0
VERTEX
8
Layer 1
10
600.716565
20
361.692567
70
0
0
VERTEX
8
Layer 1
10
600.082569
20
362.219790
70
0
0
VERTEX
8
Layer 1
10
599.368825
20
362.565986
70
0
0
VERTEX
8
Layer 1
10
597.698599
20
362.819850
70
0
0
VERTEX
8
Layer 1
10
531.888030
20
363.393373
70
0
0
VERTEX
8
Layer 1
10
498.950601
20
363.540275
70
0
0
VERTEX
8
Layer 1
10
466.023637
20
363.416918
70
0
0
VERTEX
8
Layer 1
10
466.023637
20
363.416821
70
0
0
SEQEND
8
Layer 1
0
POLYLINE
8
Layer 1
62
150
70
0
10
0.000000
20
0.000000
66
1
0
VERTEX
8
Layer 1
10
489.892270
20
387.683078
70
0
0
VERTEX
8
Layer 1
10
488.343249
20
387.559584
70
0
0
VERTEX
8
Layer 1
10
487.027117
20
387.220625
70
0
0
VERTEX
8
Layer 1
10
485.940358
20
386.697075
70
0
0
VERTEX
8
Layer 1
10
485.079458
20
386.019812
70
0
0
VERTEX
8
Layer 1
10
484.440903
20
385.219711
70
0
0
VERTEX
8
Layer 1
10
484.021176
20
384.327648
70
0
0
VERTEX
8
Layer 1
10
483.816764
20
383.374497
70
0
0
VERTEX
8
Layer 1
10
483.824150
20
382.391135
70
0
0
VERTEX
8
Layer 1
10
484.039821
20
381.408437
70
0
0
VERTEX
8
Layer 1
10
484.460261
20
380.457280
70
0
0
VERTEX
8
Layer 1
10
485.081955
20
379.568538
70
0
0
VERTEX
8
Layer 1
10
485.901388
20
378.773087
70
0
0
VERTEX
8
Layer 1
10
486.915045
20
378.101803
70
0
0
VERTEX
8
Layer 1
10
488.119412
20
377.585562
70
0
0
VERTEX
8
Layer 1
10
489.510972
20
377.255239
70
0
0
VERTEX
8
Layer 1
10
491.086213
20
377.141711
70
0
0
VERTEX
8
Layer 1
10
569.852557
20
377.141711
70
0
0
VERTEX
8
Layer 1
10
571.242484
20
377.260320
70
0
0
VERTEX
8
Layer 1
10
572.451706
20
377.589120
70
0
0
VERTEX
8
Layer 1
10
573.479943
20
378.098503
70
0
0
VERTEX
8
Layer 1
10
574.326915
20
378.758865
70
0
0
VERTEX
8
Layer 1
10
574.992343
20
379.540600
70
0
0
VERTEX
8
Layer 1
10
575.475949
20
380.414102
70
0
0
VERTEX
8
Layer 1
10
575.777452
20
381.349765
70
0
0
VERTEX
8
Layer 1
10
575.896573
20
382.317984
70
0
0
VERTEX
8
Layer 1
10
575.833033
20
383.289154
70
0
0
VERTEX
8
Layer 1
10
575.586553
20
384.233668
70
0
0
VERTEX
8
Layer 1
10
575.156852
20
385.121921
70
0
0
VERTEX
8
Layer 1
10
574.543653
20
385.924308
70
0
0
VERTEX
8
Layer 1
10
573.746675
20
386.611223
70
0
0
VERTEX
8
Layer 1
10
572.765640
20
387.153060
70
0
0
VERTEX
8
Layer 1
10
571.600267
20
387.520214
70
0
0
VERTEX
8
Layer 1
10
570.250278
20
387.683078
70
0
0
VERTEX
8
Layer 1
10
550.231680
20
388.079372
70
0
0
VERTEX
8
Layer 1
10
529.537012
20
388.057219
70
0
0
VERTEX
8
Layer 1
10
489.892270
20
387.683078
70
0
0
VERTEX
8
Layer 1
10
489.892270
20
387.683078
70
0
0
SEQEND
8
Layer 1
0
POLYLINE
8
Layer 1
62
7
70
0
10
0.000000
20
0.000000
66
1
0
VERTEX
8
Layer 1
10
385.537660
20
292.462560
70
0
0
VERTEX
8
Layer 1
10
383.334112
20
292.194214
70
0
0
VERTEX
8
Layer 1
10
381.127625
20
291.794639
70
0
0
VERTEX
8
Layer 1
10
376.737360
20
290.938670
70
0
0
VERTEX
8
Layer 1
10
374.424615
20
290.594236
70
0
0
VERTEX
8
Layer 1
10
373.289550
20
290.318608
70
0
0
VERTEX
8
Layer 1
10
372.224400
20
289.860740
70
0
0
VERTEX
8
Layer 1
10
370.325952
20
288.491068
70
0
0
VERTEX
8
Layer 1
10
368.874327
20
286.843232
70
0
0
VERTEX
8
Layer 1
10
367.834429
20
284.972073
70
0
0
VERTEX
8
Layer 1
10
367.171160
20
282.932429
70
0
0
VERTEX
8
Layer 1
10
366.849425
20
280.779138
70
0
0
VERTEX
8
Layer 1
10
366.834126
20
278.567041
70
0
0
VERTEX
8
Layer 1
10
367.090166
20
276.350975
70
0
0
VERTEX
8
Layer 1
10
367.582450
20
274.185780
70
0
0
VERTEX
8
Layer 1
10
368.779451
20
271.012648
70
0
0
VERTEX
8
Layer 1
10
370.394889
20
267.930034
70
0
0
VERTEX
8
Layer 1
10
373.933890
20
262.000800
70
0
0
VERTEX
8
Layer 1
10
375.527325
20
259.048279
70
0
0
VERTEX
8
Layer 1
10
376.968898
20
256.027978
70
0
0
VERTEX
8
Layer 1
10
378.194559
20
252.944281
70
0
0
VERTEX
8
Layer 1
10
379.140260
20
249.801574
70
0
0
VERTEX
8
Layer 1
10
379.741951
20
246.604240
70
0
0
VERTEX
8
Layer 1
10
379.935582
20
243.356663
70
0
0
VERTEX
8
Layer 1
10
379.657105
20
240.063228
70
0
0
VERTEX
8
Layer 1
10
378.842470
20
236.728320
70
0
0
VERTEX
8
Layer 1
10
377.824653
20
234.141908
70
0
0
VERTEX
8
Layer 1
10
376.529077
20
231.654221
70
0
0
VERTEX
8
Layer 1
10
374.992905
20
229.274653
70
0
0
VERTEX
8
Layer 1
10
373.253297
20
227.012599
70
0
0
VERTEX
8
Layer 1
10
371.347418
20
224.877454
70
0
0
VERTEX
8
Layer 1
10
369.312429
20
222.878612
70
0
0
VERTEX
8
Layer 1
10
367.185492
20
221.025470
70
0
0
VERTEX
8
Layer 1
10
365.003770
20
219.327420
70
0
0
VERTEX
8
Layer 1
10
361.814869
20
217.148316
70
0
0
VERTEX
8
Layer 1
10
358.459880
20
215.236850
70
0
0
VERTEX
8
Layer 1
10
356.823720
20
214.417900
70
0
0
VERTEX
8
Layer 1
10
356.155976
20
213.842854
70
0
0
VERTEX
8
Layer 1
10
355.782340
20
213.031890
70
0
0
VERTEX
8
Layer 1
10
355.302287
20
208.982510
70
0
0
VERTEX
8
Layer 1
10
355.054420
20
204.912100
70
0
0
VERTEX
8
Layer 1
10
354.966731
20
203.041214
70
0
0
VERTEX
8
Layer 1
10
355.184429
20
202.175561
70
0
0
VERTEX
8
Layer 1
10
355.783730
20
201.417670
70
0
0
VERTEX
8
Layer 1
10
356.805584
20
200.855599
70
0
0
VERTEX
8
Layer 1
10
358.084657
20
200.548672
70
0
0
VERTEX
8
Layer 1
10
359.543220
20
200.439478
70
0
0
VERTEX
8
Layer 1
10
361.103541
20
200.470605
70
0
0
VERTEX
8
Layer 1
10
364.218540
20
200.724181
70
0
0
VERTEX
8
Layer 1
10
366.807810
20
200.850110
70
0
0
VERTEX
8
Layer 1
10
366.130090
20
199.721980
70
0
0
VERTEX
8
Layer 1
10
366.130090
20
199.496070
70
0
0
VERTEX
8
Layer 1
10
371.094310
20
198.142030
70
0
0
VERTEX
8
Layer 1
10
371.094310
20
197.690220
70
0
0
VERTEX
8
Layer 1
10
365.904470
20
197.013890
70
0
0
VERTEX
8
Layer 1
10
367.935250
20
194.306230
70
0
0
VERTEX
8
Layer 1
10
366.519810
20
194.339370
70
0
0
VERTEX
8
Layer 1
10
365.086147
20
194.635152
70
0
0
VERTEX
8
Layer 1
10
362.294150
20
195.460860
70
0
0
VERTEX
8
Layer 1
10
357.584169
20
196.562780
70
0
0
VERTEX
8
Layer 1
10
352.816970
20
197.369770
70
0
0
VERTEX
8
Layer 1
10
350.318306
20
197.517935
70
0
0
VERTEX
8
Layer 1
10
349.008455
20
197.795307
70
0
0
VERTEX
8
Layer 1
10
348.539259
20
198.057451
70
0
0
VERTEX
8
Layer 1
10
348.270400
20
198.429570
70
0
0
VERTEX
8
Layer 1
10
348.233396
20
198.942422
70
0
0
VERTEX
8
Layer 1
10
348.449678
20
199.408461
70
0
0
VERTEX
8
Layer 1
10
349.359373
20
200.254185
70
0
0
VERTEX
8
Layer 1
10
350.434025
20
201.074912
70
0
0
VERTEX
8
Layer 1
10
350.856506
20
201.509704
70
0
0
VERTEX
8
Layer 1
10
351.108180
20
201.978810
70
0
0
VERTEX
8
Layer 1
10
351.341708
20
203.130236
70
0
0
VERTEX
8
Layer 1
10
351.422001
20
204.349767
70
0
0
VERTEX
8
Layer 1
10
351.272900
20
206.908090
70
0
0
VERTEX
8
Layer 1
10
350.960906
20
209.483671
70
0
0
VERTEX
8
Layer 1
10
350.786050
20
211.906400
70
0
0
VERTEX
8
Layer 1
10
348.342131
20
211.267646
70
0
0
VERTEX
8
Layer 1
10
347.113329
20
210.744423
70
0
0
VERTEX
8
Layer 1
10
346.241150
20
210.038500
70
0
0
VERTEX
8
Layer 1
10
345.887541
20
209.306598
70
0
0
VERTEX
8
Layer 1
10
345.711075
20
208.438501
70
0
0
VERTEX
8
Layer 1
10
345.560650
20
206.716560
70
0
0
VERTEX
8
Layer 1
10
344.855040
20
198.818910
70
0
0
VERTEX
8
Layer 1
10
344.732323
20
196.948910
70
0
0
VERTEX
8
Layer 1
10
344.920535
20
196.059364
70
0
0
VERTEX
8
Layer 1
10
345.433750
20
195.260050
70
0
0
VERTEX
8
Layer 1
10
346.333713
20
194.630089
70
0
0
VERTEX
8
Layer 1
10
347.463609
20
194.275414
70
0
0
VERTEX
8
Layer 1
10
348.756058
20
194.135304
70
0
0
VERTEX
8
Layer 1
10
350.143681
20
194.149036
70
0
0
VERTEX
8
Layer 1
10
352.934928
20
194.395140
70
0
0
VERTEX
8
Layer 1
10
355.298310
20
194.527950
70
0
0
VERTEX
8
Layer 1
10
356.002624
20
194.383308
70
0
0
VERTEX
8
Layer 1
10
356.346059
20
194.071600
70
0
0
VERTEX
8
Layer 1
10
356.278575
20
193.650602
70
0
0
VERTEX
8
Layer 1
10
355.750130
20
193.178090
70
0
0
VERTEX
8
Layer 1
10
355.750130
20
192.952190
70
0
0
VERTEX
8
Layer 1
10
357.104512
20
192.874559
70
0
0
VERTEX
8
Layer 1
10
358.531841
20
192.634471
70
0
0
VERTEX
8
Layer 1
10
359.865775
20
192.158360
70
0
0
VERTEX
8
Layer 1
10
360.939970
20
191.372660
70
0
0
VERTEX
8
Layer 1
10
355.750130
20
190.470430
70
0
0
VERTEX
8
Layer 1
10
357.780910
20
187.988250
70
0
0
VERTEX
8
Layer 1
10
356.359984
20
187.936064
70
0
0
VERTEX
8
Layer 1
10
354.829334
20
188.226531
70
0
0
VERTEX
8
Layer 1
10
351.914050
20
189.116390
70
0
0
VERTEX
8
Layer 1
10
347.323170
20
190.232355
70
0
0
VERTEX
8
Layer 1
10
342.662630
20
190.985830
70
0
0
VERTEX
8
Layer 1
10
340.138340
20
191.140779
70
0
0
VERTEX
8
Layer 1
10
338.818817
20
191.438216
70
0
0
VERTEX
8
Layer 1
10
338.349346
20
191.713367
70
0
0
VERTEX
8
Layer 1
10
338.084690
20
192.100020
70
0
0
VERTEX
8
Layer 1
10
338.068574
20
192.607400
70
0
0
VERTEX
8
Layer 1
10
338.308874
20
193.080227
70
0
0
VERTEX
8
Layer 1
10
339.263724
20
193.971797
70
0
0
VERTEX
8
Layer 1
10
340.359242
20
194.873879
70
0
0
VERTEX
8
Layer 1
10
340.775377
20
195.359845
70
0
0
VERTEX
8
Layer 1
10
341.005430
20
195.885620
70
0
0
VERTEX
8
Layer 1
10
341.209535
20
197.360526
70
0
0
VERTEX
8
Layer 1
10
341.262953
20
198.917628
70
0
0
VERTEX
8
Layer 1
10
341.059641
20
202.173791
70
0
0
VERTEX
8
Layer 1
10
340.679316
20
205.444859
70
0
0
VERTEX
8
Layer 1
10
340.405800
20
208.521580
70
0
0
VERTEX
8
Layer 1
10
335.055744
20
207.907247
70
0
0
VERTEX
8
Layer 1
10
332.458942
20
207.772523
70
0
0
VERTEX
8
Layer 1
10
329.901448
20
207.824042
70
0
0
VERTEX
8
Layer 1
10
327.373630
20
208.115266
70
0
0
VERTEX
8
Layer 1
10
324.865857
20
208.699656
70
0
0
VERTEX
8
Layer 1
10
322.368498
20
209.630674
70
0
0
VERTEX
8
Layer 1
10
319.871920
20
210.961780
70
0
0
VERTEX
8
Layer 1
10
318.404117
20
211.990426
70
0
0
VERTEX
8
Layer 1
10
317.050647
20
213.130649
70
0
0
VERTEX
8
Layer 1
10
314.490906
20
215.533765
70
0
0
VERTEX
8
Layer 1
10
313.186732
20
216.690627
70
0
0
VERTEX
8
Layer 1
10
311.801087
20
217.747004
70
0
0
VERTEX
8
Layer 1
10
310.285020
20
218.649880
70
0
0
VERTEX
8
Layer 1
10
308.589580
20
219.346240
70
0
0
VERTEX
8
Layer 1
10
301.765863
20
221.510621
70
0
0
VERTEX
8
Layer 1
10
298.390398
20
222.678399
70
0
0
VERTEX
8
Layer 1
10
295.050700
20
223.996280
70
0
0
VERTEX
8
Layer 1
10
292.377059
20
225.133084
70
0
0
VERTEX
8
Layer 1
10
291.175076
20
225.928469
70
0
0
VERTEX
8
Layer 1
10
290.312110
20
227.024680
70
0
0
VERTEX
8
Layer 1
10
292.717464
20
228.535100
70
0
0
VERTEX
8
Layer 1
10
294.986845
20
230.224477
70
0
0
VERTEX
8
Layer 1
10
297.288153
20
231.875916
70
0
0
VERTEX
8
Layer 1
10
299.789290
20
233.272520
70
0
0
VERTEX
8
Layer 1
10
302.037760
20
233.995647
70
0
0
VERTEX
8
Layer 1
10
304.280425
20
234.424377
70
0
0
VERTEX
8
Layer 1
10
306.477595
20
234.972361
70
0
0
VERTEX
8
Layer 1
10
307.546716
20
235.420339
70
0
0
VERTEX
8
Layer 1
10
308.589580
20
236.053250
70
0
0
VERTEX
8
Layer 1
10
311.155352
20
238.027620
70
0
0
VERTEX
8
Layer 1
10
313.661519
20
240.128229
70
0
0
VERTEX
8
Layer 1
10
318.663148
20
244.395150
70
0
0
VERTEX
8
Layer 1
10
321.242664
20
246.404955
70
0
0
VERTEX
8
Layer 1
10
323.930685
20
248.227986
70
0
0
VERTEX
8
Layer 1
10
326.769238
20
249.785989
70
0
0
VERTEX
8
Layer 1
10
329.800350
20
251.000710
70
0
0
VERTEX
8
Layer 1
10
334.060172
20
252.085842
70
0
0
VERTEX
8
Layer 1
10
338.411888
20
252.753675
70
0
0
VERTEX
8
Layer 1
10
347.175180
20
253.613690
70
0
0
VERTEX
8
Layer 1
10
349.819314
20
253.957766
70
0
0
VERTEX
8
Layer 1
10
352.329500
20
254.587299
70
0
0
VERTEX
8
Layer 1
10
353.494431
20
255.088020
70
0
0
VERTEX
8
Layer 1
10
354.577958
20
255.754797
70
0
0
VERTEX
8
Layer 1
10
355.564109
20
256.619192
70
0
0
VERTEX
8
Layer 1
10
356.436910
20
257.712770
70
0
0
VERTEX
8
Layer 1
10
357.064001
20
258.797663
70
0
0
VERTEX
8
Layer 1
10
357.546517
20
259.926108
70
0
0
VERTEX
8
Layer 1
10
358.152974
20
262.283551
70
0
0
VERTEX
8
Layer 1
10
358.406584
20
264.724899
70
0
0
VERTEX
8
Layer 1
10
358.457650
20
267.189950
70
0
0
VERTEX
8
Layer 1
10
358.344504
20
269.964530
70
0
0
VERTEX
8
Layer 1
10
358.043759
20
272.729762
70
0
0
VERTEX
8
Layer 1
10
357.109156
20
278.244930
70
0
0
VERTEX
8
Layer 1
10
356.113213
20
283.760961
70
0
0
VERTEX
8
Layer 1
10
355.735792
20
286.527270
70
0
0
VERTEX
8
Layer 1
10
355.515300
20
289.303360
70
0
0
VERTEX
8
Layer 1
10
355.402721
20
292.213636
70
0
0
VERTEX
8
Layer 1
10
355.532939
20
295.214760
70
0
0
VERTEX
8
Layer 1
10
355.792751
20
296.673471
70
0
0
VERTEX
8
Layer 1
10
356.237647
20
298.063791
70
0
0
VERTEX
8
Layer 1
10
356.909090
20
299.355353
70
0
0
VERTEX
8
Layer 1
10
357.848540
20
300.517790
70
0
0
VERTEX
8
Layer 1
10
359.292509
20
301.630759
70
0
0
VERTEX
8
Layer 1
10
360.939690
20
302.418880
70
0
0
VERTEX
8
Layer 1
10
362.261093
20
302.828213
70
0
0
VERTEX
8
Layer 1
10
363.517403
20
303.059015
70
0
0
VERTEX
8
Layer 1
10
364.715440
20
303.126870
70
0
0
VERTEX
8
Layer 1
10
365.862019
20
303.047357
70
0
0
VERTEX
8
Layer 1
10
368.028076
20
302.508557
70
0
0
VERTEX
8
Layer 1
10
370.070115
20
301.567271
70
0
0
VERTEX
8
Layer 1
10
372.042676
20
300.348152
70
0
0
VERTEX
8
Layer 1
10
374.000299
20
298.975853
70
0
0
VERTEX
8
Layer 1
10
375.997523
20
297.575028
70
0
0
VERTEX
8
Layer 1
10
378.088890
20
296.270330
70
0
0
VERTEX
8
Layer 1
10
379.975252
20
295.495935
70
0
0
VERTEX
8
Layer 1
10
382.173016
20
294.770655
70
0
0
VERTEX
8
Layer 1
10
384.190318
20
293.843235
70
0
0
VERTEX
8
Layer 1
10
384.977587
20
293.225206
70
0
0
VERTEX
8
Layer 1
10
385.535290
20
292.462420
70
0
0
VERTEX
8
Layer 1
10
385.537660
20
292.462560
70
0
0
SEQEND
8
Layer 1
0
POLYLINE
8
Layer 1
62
7
70
0
10
0.000000
20
0.000000
66
1
0
VERTEX
8
Layer 1
10
100.150272
20
67.221695
70
0
0
VERTEX
8
Layer 1
10
111.681620
20
63.522907
70
0
0
VERTEX
8
Layer 1
10
110.684143
20
59.145931
70
0
0
VERTEX
8
Layer 1
10
109.504631
20
55.035513
70
0
0
VERTEX
8
Layer 1
10
108.143085
20
51.191652
70
0
0
VERTEX
8
Layer 1
10
106.599504
20
47.614350
70
0
0
VERTEX
8
Layer 1
10
104.873888
20
44.303605
70
0
0
VERTEX
8
Layer 1
10
102.966238
20
41.259417
70
0
0
VERTEX
8
Layer 1
10
100.876553
20
38.481788
70
0
0
VERTEX
8
Layer 1
10
98.604834
20
35.970716
70
0
0
VERTEX
8
Layer 1
10
96.191013
20
33.759226
70
0
0
VERTEX
8
Layer 1
10
93.645310
20
31.842602
70
0
0
VERTEX
8
Layer 1
10
90.967725
20
30.220843
70
0
0
VERTEX
8
Layer 1
10
88.158257
20
28.893949
70
0
0
VERTEX
8
Layer 1
10
85.216908
20
27.861920
70
0
0
VERTEX
8
Layer 1
10
82.143676
20
27.124757
70
0
0
VERTEX
8
Layer 1
10
78.938562
20
26.682459
70
0
0
VERTEX
8
Layer 1
10
75.601566
20
26.535026
70
0
0
VERTEX
8
Layer 1
10
72.161479
20
26.648255
70
0
0
VERTEX
8
Layer 1
10
68.884851
20
26.987939
70
0
0
VERTEX
8
Layer 1
10
65.771683
20
27.554080
70
0
0
VERTEX
8
Layer 1
10
62.821975
20
28.346677
70
0
0
VERTEX
8
Layer 1
10
60.035727
20
29.365731
70
0
0
VERTEX
8
Layer 1
10
57.412939
20
30.611240
70
0
0
VERTEX
8
Layer 1
10
54.953610
20
32.083207
70
0
0
VERTEX
8
Layer 1
10
52.657742
20
33.781629
70
0
0
VERTEX
8
Layer 1
10
50.523476
20
35.713586
70
0
0
VERTEX
8
Layer 1
10
48.519235
20
37.848411
70
0
0
VERTEX
8
Layer 1
10
46.645019
20
40.186102
70
0
0
VERTEX
8
Layer 1
10
44.900827
20
42.726661
70
0
0
VERTEX
8
Layer 1
10
43.286661
20
45.470086
70
0
0
VERTEX
8
Layer 1
10
41.802519
20
48.416379
70
0
0
VERTEX
8
Layer 1
10
40.448403
20
51.565539
70
0
0
VERTEX
8
Layer 1
10
39.224311
20
54.917566
70
0
0
VERTEX
8
Layer 1
10
38.151606
20
58.402872
70
0
0
VERTEX
8
Layer 1
10
37.221927
20
61.951869
70
0
0
VERTEX
8
Layer 1
10
36.435277
20
65.564557
70
0
0
VERTEX
8
Layer 1
10
35.791653
20
69.240936
70
0
0
VERTEX
8
Layer 1
10
34.933489
20
76.784767
70
0
0
VERTEX
8
Layer 1
10
34.647434
20
84.583363
70
0
0
VERTEX
8
Layer 1
10
34.728235
20
88.835319
70
0
0
VERTEX
8
Layer 1
10
34.970639
20
92.948098
70
0
0
VERTEX
8
Layer 1
10
35.374645
20
96.921701
70
0
0
VERTEX
8
Layer 1
10
35.940253
20
100.756127
70
0
0
VERTEX
8
Layer 1
10
36.667464
20
104.451377
70
0
0
VERTEX
8
Layer 1
10
37.556277
20
108.007451
70
0
0
VERTEX
8
Layer 1
10
38.606693
20
111.424348
70
0
0
VERTEX
8
Layer 1
10
39.818711
20
114.702069
70
0
0
VERTEX
8
Layer 1
10
41.194189
20
117.831177
70
0
0
VERTEX
8
Layer 1
10
42.705264
20
120.764495
70
0
0
VERTEX
8
Layer 1
10
44.351937
20
123.502023
70
0
0
VERTEX
8
Layer 1
10
46.134207
20
126.043761
70
0
0
VERTEX
8
Layer 1
10
48.052074
20
128.389709
70
0
0
VERTEX
8
Layer 1
10
50.105539
20
130.539867
70
0
0
VERTEX
8
Layer 1
10
52.294601
20
132.494235
70
0
0
VERTEX
8
Layer 1
10
54.619260
20
134.252813
70
0
0
VERTEX
8
Layer 1
10
57.056299
20
135.827391
70
0
0
VERTEX
8
Layer 1
10
59.552777
20
137.192026
70
0
0
VERTEX
8
Layer 1
10
62.108696
20
138.346717
70
0
0
VERTEX
8
Layer 1
10
64.724054
20
139.291464
70
0
0
VERTEX
8
Layer 1
10
67.398852
20
140.026267
70
0
0
VERTEX
8
Layer 1
10
70.133090
20
140.551126
70
0
0
VERTEX
8
Layer 1
10
72.926769
20
140.866042
70
0
0
VERTEX
8
Layer 1
10
75.779887
20
140.971014
70
0
0
VERTEX
8
Layer 1
10
78.984072
20
140.838914
70
0
0
VERTEX
8
Layer 1
10
82.058232
20
140.442616
70
0
0
VERTEX
8
Layer 1
10
85.002368
20
139.782118
70
0
0
VERTEX
8
Layer 1
10
87.816478
20
138.857422
70
0
0
VERTEX
8
Layer 1
10
90.500563
20
137.668526
70
0
0
VERTEX
8
Layer 1
10
93.054624
20
136.215432
70
0
0
VERTEX
8
Layer 1
10
95.478659
20
134.498138
70
0
0
VERTEX
8
Layer 1
10
97.772669
20
132.516646
70
0
0
VERTEX
8
Layer 1
10
99.917153
20
130.295720
70
0
0
VERTEX
8
Layer 1
10
101.892604
20
127.860133
70
0
0
VERTEX
8
Layer 1
10
103.699022
20
125.209884
70
0
0
VERTEX
8
Layer 1
10
105.336407
20
122.344973
70
0
0
VERTEX
8
Layer 1
10
106.804759
20
119.265401
70
0
0
VERTEX
8
Layer 1
10
108.104079
20
115.971166
70
0
0
VERTEX
8
Layer 1
10
109.234365
20
112.462271
70
0
0
VERTEX
8
Layer 1
10
110.195619
20
108.738713
70
0
0
VERTEX
8
Layer 1
10
98.842589
20
105.341872
70
0
0
VERTEX
8
Layer 1
10
97.155979
20
110.970257
70
0
0
VERTEX
8
Layer 1
10
96.184508
20
113.476610
70
0
0
VERTEX
8
Layer 1
10
95.127591
20
115.777737
70
0
0
VERTEX
8
Layer 1
10
93.985230
20
117.873638
70
0
0
VERTEX
8
Layer 1
10
92.757425
20
119.764312
70
0
0
VERTEX
8
Layer 1
10
91.444174
20
121.449761
70
0
0
VERTEX
8
Layer 1
10
90.045479
20
122.929983
70
0
0
VERTEX
8
Layer 1
10
88.557622
20
124.221494
70
0
0
VERTEX
8
Layer 1
10
86.976890
20
125.340803
70
0
0
VERTEX
8
Layer 1
10
85.303283
20
126.287911
70
0
0
VERTEX
8
Layer 1
10
83.536802
20
127.062818
70
0
0
VERTEX
8
Layer 1
10
81.677445
20
127.665523
70
0
0
VERTEX
8
Layer 1
10
79.725214
20
128.096027
70
0
0
VERTEX
8
Layer 1
10
77.680107
20
128.354329
70
0
0
VERTEX
8
Layer 1
10
75.542126
20
128.440430
70
0
0
VERTEX
8
Layer 1
10
73.081869
20
128.344893
70
0
0
VERTEX
8
Layer 1
10
70.723775
20
128.058284
70
0
0
VERTEX
8
Layer 1
10
68.467842
20
127.580602
70
0
0
VERTEX
8
Layer 1
10
66.314072
20
126.911847
70
0
0
VERTEX
8
Layer 1
10
64.262465
20
126.052020
70
0
0
VERTEX
8
Layer 1
10
62.313020
20
125.001119
70
0
0
VERTEX
8
Layer 1
10
60.465738
20
123.759146
70
0
0
VERTEX
8
Layer 1
10
58.720618
20
122.326100
70
0
0
VERTEX
8
Layer 1
10
57.103665
20
120.731470
70
0
0
VERTEX
8
Layer 1
10
55.611165
20
119.004741
70
0
0
VERTEX
8
Layer 1
10
54.243117
20
117.145911
70
0
0
VERTEX
8
Layer 1
10
52.999521
20
115.154981
70
0
0
VERTEX
8
Layer 1
10
51.880378
20
113.031951
70
0
0
VERTEX
8
Layer 1
10
50.885688
20
110.776822
70
0
0
VERTEX
8
Layer 1
10
50.015450
20
108.389592
70
0
0
VERTEX
8
Layer 1
10
49.269664
20
105.870262
70
0
0
VERTEX
8
Layer 1
10
48.073435
20
100.694792
70
0
0
VERTEX
8
Layer 1
10
47.218986
20
95.434400
70
0
0
VERTEX
8
Layer 1
10
46.706316
20
90.089083
70
0
0
VERTEX
8
Layer 1
10
46.535426
20
84.658844
70
0
0
VERTEX
8
Layer 1
10
46.736036
20
77.822693
70
0
0
VERTEX
8
Layer 1
10
47.337866
20
71.430018
70
0
0
VERTEX
8
Layer 1
10
48.340915
20
65.480817
70
0
0
VERTEX
8
Layer 1
10
49.745184
20
59.975093
70
0
0
VERTEX
8
Layer 1
10
50.618209
20
57.434534
70
0
0
VERTEX
8
Layer 1
10
51.602683
20
55.059101
70
0
0
VERTEX
8
Layer 1
10
52.698607
20
52.848791
70
0
0
VERTEX
8
Layer 1
10
53.905981
20
50.803606
70
0
0
VERTEX
8
Layer 1
10
55.224805
20
48.923546
70
0
0
VERTEX
8
Layer 1
10
56.655079
20
47.208610
70
0
0
VERTEX
8
Layer 1
10
58.196803
20
45.658798
70
0
0
VERTEX
8
Layer 1
10
59.849977
20
44.274111
70
0
0
VERTEX
8
Layer 1
10
61.576522
20
43.053371
70
0
0
VERTEX
8
Layer 1
10
63.338360
20
41.995397
70
0
0
VERTEX
8
Layer 1
10
65.135490
20
41.100188
70
0
0
VERTEX
8
Layer 1
10
66.967912
20
40.367744
70
0
0
VERTEX
8
Layer 1
10
68.835627
20
39.798066
70
0
0
VERTEX
8
Layer 1
10
70.738635
20
39.391152
70
0
0
VERTEX
8
Layer 1
10
72.676935
20
39.147004
70
0
0
VERTEX
8
Layer 1
10
74.650527
20
39.065622
70
0
0
VERTEX
8
Layer 1
10
77.026267
20
39.176491
70
0
0
VERTEX
8
Layer 1
10
79.309132
20
39.509099
70
0
0
VERTEX
8
Layer 1
10
81.499123
20
40.063445
70
0
0
VERTEX
8
Layer 1
10
83.596238
20
40.839529
70
0
0
VERTEX
8
Layer 1
10
85.600479
20
41.837352
70
0
0
VERTEX
8
Layer 1
10
87.511845
20
43.056913
70
0
0
VERTEX
8
Layer 1
10
89.330337
20
44.498213
70
0
0
VERTEX
8
Layer 1
10
91.055953
20
46.161251
70
0
0
VERTEX
8
Layer 1
10
92.667333
20
48.042492
70
0
0
VERTEX
8
Layer 1
10
94.143117
20
50.138394
70
0
0
VERTEX
8
Layer 1
10
95.483302
20
52.448957
70
0
0
VERTEX
8
Layer 1
10
96.687891
20
54.974182
70
0
0
VERTEX
8
Layer 1
10
97.756882
20
57.714069
70
0
0
VERTEX
8
Layer 1
10
98.690276
20
60.668616
70
0
0
VERTEX
8
Layer 1
10
99.488072
20
63.837825
70
0
0
VERTEX
8
Layer 1
10
100.150272
20
67.221695
70
0
0
VERTEX
8
Layer 1
10
100.150272
20
67.221695
70
0
0
SEQEND
8
Layer 1
0
POLYLINE
8
Layer 1
62
7
70
0
10
0.000000
20
0.000000
66
1
0
VERTEX
8
Layer 1
10
126.066090
20
28.422167
70
0
0
VERTEX
8
Layer 1
10
126.066090
20
139.083874
70
0
0
VERTEX
8
Layer 1
10
164.702068
20
139.083874
70
0
0
VERTEX
8
Layer 1
10
170.177974
20
138.895160
70
0
0
VERTEX
8
Layer 1
10
174.955461
20
138.329020
70
0
0
VERTEX
8
Layer 1
10
179.034529
20
137.385454
70
0
0
VERTEX
8
Layer 1
10
180.812156
20
136.772136
70
0
0
VERTEX
8
Layer 1
10
182.415178
20
136.064461
70
0
0
VERTEX
8
Layer 1
10
183.892817
20
135.256530
70
0
0
VERTEX
8
Layer 1
10
185.294298
20
134.304706
70
0
0
VERTEX
8
Layer 1
10
186.619623
20
133.208987
70
0
0
VERTEX
8
Layer 1
10
187.868790
20
131.969374
70
0
0
VERTEX
8
Layer 1
10
190.138654
20
129.058465
70
0
0
VERTEX
8
Layer 1
10
192.103888
20
125.571979
70
0
0
VERTEX
8
Layer 1
10
193.690193
20
121.698630
70
0
0
VERTEX
8
Layer 1
10
194.823268
20
117.627131
70
0
0
VERTEX
8
Layer 1
10
195.503113
20
113.357483
70
0
0
VERTEX
8
Layer 1
10
195.729728
20
108.889686
70
0
0
VERTEX
8
Layer 1
10
195.635924
20
106.003545
70
0
0
VERTEX
8
Layer 1
10
195.354513
20
103.232992
70
0
0
VERTEX
8
Layer 1
10
194.885494
20
100.578026
70
0
0
VERTEX
8
Layer 1
10
194.228868
20
98.038647
70
0
0
VERTEX
8
Layer 1
10
193.384634
20
95.614856
70
0
0
VERTEX
8
Layer 1
10
192.352792
20
93.306652
70
0
0
VERTEX
8
Layer 1
10
191.133343
20
91.114036
70
0
0
VERTEX
8
Layer 1
10
189.726286
20
89.037007
70
0
0
VERTEX
8
Layer 1
10
188.123265
20
87.109767
70
0
0
VERTEX
8
Layer 1
10
186.315919
20
85.366524
70
0
0
VERTEX
8
Layer 1
10
184.304248
20
83.807276
70
0
0
VERTEX
8
Layer 1
10
182.088252
20
82.432025
70
0
0
VERTEX
8
Layer 1
10
179.667932
20
81.240769
70
0
0
VERTEX
8
Layer 1
10
177.043286
20
80.233510
70
0
0
VERTEX
8
Layer 1
10
174.214316
20
79.410247
70
0
0
VERTEX
8
Layer 1
10
171.181020
20
78.770980
70
0
0
VERTEX
8
Layer 1
10
175.208079
20
75.996892
70
0
0
VERTEX
8
Layer 1
10
176.809244
20
74.624000
70
0
0
VERTEX
8
Layer 1
10
178.135500
20
73.260544
70
0
0
VERTEX
8
Layer 1
10
180.628263
20
70.132611
70
0
0
VERTEX
8
Layer 1
10
183.054156
20
66.636689
70
0
0
VERTEX
8
Layer 1
10
185.413178
20
62.772776
70
0
0
VERTEX
8
Layer 1
10
187.705329
20
58.540873
70
0
0
VERTEX
8
Layer 1
10
202.862518
20
28.422167
70
0
0
VERTEX
8
Layer 1
10
188.359175
20
28.422167
70
0
0
VERTEX
8
Layer 1
10
176.827817
20
51.445232
70
0
0
VERTEX
8
Layer 1
10
172.221221
20
60.239296
70
0
0
VERTEX
8
Layer 1
10
168.506226
20
66.693305
70
0
0
VERTEX
8
Layer 1
10
166.912490
20
69.137147
70
0
0
VERTEX
8
Layer 1
10
165.400485
20
71.184690
70
0
0
VERTEX
8
Layer 1
10
163.970210
20
72.835935
70
0
0
VERTEX
8
Layer 1
10
162.621666
20
74.090881
70
0
0
VERTEX
8
Layer 1
10
160.036031
20
75.883662
70
0
0
VERTEX
8
Layer 1
10
158.720922
20
76.539441
70
0
0
VERTEX
8
Layer 1
10
157.390951
20
77.034813
70
0
0
VERTEX
8
Layer 1
10
154.805312
20
77.431114
70
0
0
VERTEX
8
Layer 1
10
150.971435
20
77.563215
70
0
0
VERTEX
8
Layer 1
10
137.597448
20
77.563215
70
0
0
VERTEX
8
Layer 1
10
137.597448
20
28.422167
70
0
0
VERTEX
8
Layer 1
10
126.066090
20
28.422167
70
0
0
SEQEND
8
Layer 1
0
POLYLINE
8
Layer 1
62
7
70
0
10
0.000000
20
0.000000
66
1
0
VERTEX
8
Layer 1
10
137.597448
20
90.244772
70
0
0
VERTEX
8
Layer 1
10
162.383911
20
90.244772
70
0
0
VERTEX
8
Layer 1
10
166.121196
20
90.372155
70
0
0
VERTEX
8
Layer 1
10
169.427543
20
90.754301
70
0
0
VERTEX
8
Layer 1
10
172.302953
20
91.391211
70
0
0
VERTEX
8
Layer 1
10
174.747424
20
92.282886
70
0
0
VERTEX
8
Layer 1
10
176.842682
20
93.490650
70
0
0
VERTEX
8
Layer 1
10
178.670460
20
95.000358
70
0
0
VERTEX
8
Layer 1
10
180.230758
20
96.812010
70
0
0
VERTEX
8
Layer 1
10
181.523577
20
98.925606
70
0
0
VERTEX
8
Layer 1
10
182.537770
20
101.275089
70
0
0
VERTEX
8
Layer 1
10
183.262195
20
103.718929
70
0
0
VERTEX
8
Layer 1
10
183.696849
20
106.257129
70
0
0
VERTEX
8
Layer 1
10
183.841734
20
108.889686
70
0
0
VERTEX
8
Layer 1
10
183.559394
20
112.640369
70
0
0
VERTEX
8
Layer 1
10
183.206469
20
114.384791
70
0
0
VERTEX
8
Layer 1
10
182.712374
20
116.041932
70
0
0
VERTEX
8
Layer 1
10
182.077108
20
117.611794
70
0
0
VERTEX
8
Layer 1
10
181.300673
20
119.094375
70
0
0
VERTEX
8
Layer 1
10
180.383068
20
120.489677
70
0
0
VERTEX
8
Layer 1
10
179.324293
20
121.797699
70
0
0
VERTEX
8
Layer 1
10
178.128064
20
122.983056
70
0
0
VERTEX
8
Layer 1
10
176.768375
20
124.010366
70
0
0
VERTEX
8
Layer 1
10
175.245227
20
124.879629
70
0
0
VERTEX
8
Layer 1
10
173.558618
20
125.590844
70
0
0
VERTEX
8
Layer 1
10
171.708550
20
126.144011
70
0
0
VERTEX
8
Layer 1
10
169.695022
20
126.539130
70
0
0
VERTEX
8
Layer 1
10
167.518034
20
126.776201
70
0
0
VERTEX
8
Layer 1
10
165.177587
20
126.855225
70
0
0
VERTEX
8
Layer 1
10
137.597448
20
126.855225
70
0
0
VERTEX
8
Layer 1
10
137.597448
20
90.244772
70
0
0
SEQEND
8
Layer 1
0
POLYLINE
8
Layer 1
62
7
70
0
10
0.000000
20
0.000000
66
1
0
VERTEX
8
Layer 1
10
243.757216
20
28.422167
70
0
0
VERTEX
8
Layer 1
10
243.757216
20
54.917566
70
0
0
VERTEX
8
Layer 1
10
205.953403
20
54.917566
70
0
0
VERTEX
8
Layer 1
10
205.953403
20
67.372669
70
0
0
VERTEX
8
Layer 1
10
245.718736
20
139.083874
70
0
0
VERTEX
8
Layer 1
10
254.456409
20
139.083874
70
0
0
VERTEX
8
Layer 1
10
254.456409
20
67.372669
70
0
0
VERTEX
8
Layer 1
10
266.225522
20
67.372669
70
0
0
VERTEX
8
Layer 1
10
266.225522
20
54.917566
70
0
0
VERTEX
8
Layer 1
10
254.456409
20
54.917566
70
0
0
VERTEX
8
Layer 1
10
254.456409
20
28.422167
70
0
0
VERTEX
8
Layer 1
10
243.757216
20
28.422167
70
0
0
SEQEND
8
Layer 1
0
POLYLINE
8
Layer 1
62
7
70
0
10
0.000000
20
0.000000
66
1
0
VERTEX
8
Layer 1
10
243.757216
20
67.372669
70
0
0
VERTEX
8
Layer 1
10
243.757216
20
117.268573
70
0
0
VERTEX
8
Layer 1
10
216.474269
20
67.372669
70
0
0
VERTEX
8
Layer 1
10
243.757216
20
67.372669
70
0
0
SEQEND
8
Layer 1
0
POLYLINE
8
Layer 1
62
7
70
0
10
0.000000
20
0.000000
66
1
0
VERTEX
8
Layer 1
10
311.459334
20
28.422167
70
0
0
VERTEX
8
Layer 1
10
311.459334
20
54.917566
70
0
0
VERTEX
8
Layer 1
10
273.655512
20
54.917566
70
0
0
VERTEX
8
Layer 1
10
273.655512
20
67.372669
70
0
0
VERTEX
8
Layer 1
10
313.420845
20
139.083874
70
0
0
VERTEX
8
Layer 1
10
322.158518
20
139.083874
70
0
0
VERTEX
8
Layer 1
10
322.158518
20
67.372669
70
0
0
VERTEX
8
Layer 1
10
333.927630
20
67.372669
70
0
0
VERTEX
8
Layer 1
10
333.927630
20
54.917566
70
0
0
VERTEX
8
Layer 1
10
322.158518
20
54.917566
70
0
0
VERTEX
8
Layer 1
10
322.158518
20
28.422167
70
0
0
VERTEX
8
Layer 1
10
311.459334
20
28.422167
70
0
0
SEQEND
8
Layer 1
0
POLYLINE
8
Layer 1
62
7
70
0
10
0.000000
20
0.000000
66
1
0
VERTEX
8
Layer 1
10
311.459334
20
67.372669
70
0
0
VERTEX
8
Layer 1
10
311.459334
20
117.268573
70
0
0
VERTEX
8
Layer 1
10
284.176386
20
67.372669
70
0
0
VERTEX
8
Layer 1
10
311.459334
20
67.372669
70
0
0
SEQEND
8
Layer 1
0
POLYLINE
8
Layer 1
62
7
70
0
10
0.000000
20
0.000000
66
1
0
VERTEX
8
Layer 1
10
379.161442
20
28.422167
70
0
0
VERTEX
8
Layer 1
10
379.161442
20
54.917566
70
0
0
VERTEX
8
Layer 1
10
341.357629
20
54.917566
70
0
0
VERTEX
8
Layer 1
10
341.357629
20
67.372669
70
0
0
VERTEX
8
Layer 1
10
381.122963
20
139.083874
70
0
0
VERTEX
8
Layer 1
10
389.860636
20
139.083874
70
0
0
VERTEX
8
Layer 1
10
389.860636
20
67.372669
70
0
0
VERTEX
8
Layer 1
10
401.629748
20
67.372669
70
0
0
VERTEX
8
Layer 1
10
401.629748
20
54.917566
70
0
0
VERTEX
8
Layer 1
10
389.860636
20
54.917566
70
0
0
VERTEX
8
Layer 1
10
389.860636
20
28.422167
70
0
0
VERTEX
8
Layer 1
10
379.161442
20
28.422167
70
0
0
SEQEND
8
Layer 1
0
POLYLINE
8
Layer 1
62
7
70
0
10
0.000000
20
0.000000
66
1
0
VERTEX
8
Layer 1
10
379.161442
20
67.372669
70
0
0
VERTEX
8
Layer 1
10
379.161442
20
117.268573
70
0
0
VERTEX
8
Layer 1
10
351.878504
20
67.372669
70
0
0
VERTEX
8
Layer 1
10
379.161442
20
67.372669
70
0
0
SEQEND
8
Layer 1
0
POLYLINE
8
Layer 1
62
7
70
0
10
0.000000
20
0.000000
66
1
0
VERTEX
8
Layer 1
10
432.122453
20
28.422167
70
0
0
VERTEX
8
Layer 1
10
409.000301
20
139.083874
70
0
0
VERTEX
8
Layer 1
10
420.828859
20
139.083874
70
0
0
VERTEX
8
Layer 1
10
434.083965
20
66.542332
70
0
0
VERTEX
8
Layer 1
10
436.075203
20
55.181764
70
0
0
VERTEX
8
Layer 1
10
437.769241
20
43.896683
70
0
0
VERTEX
8
Layer 1
10
441.692282
20
64.353256
70
0
0
VERTEX
8
Layer 1
10
458.276036
20
139.083874
70
0
0
VERTEX
8
Layer 1
10
472.184978
20
139.083874
70
0
0
VERTEX
8
Layer 1
10
484.667373
20
83.073651
70
0
0
VERTEX
8
Layer 1
10
486.851792
20
72.812344
70
0
0
VERTEX
8
Layer 1
10
488.709291
20
62.862414
70
0
0
VERTEX
8
Layer 1
10
490.239869
20
53.223860
70
0
0
VERTEX
8
Layer 1
10
491.443526
20
43.896683
70
0
0
VERTEX
8
Layer 1
10
493.360466
20
55.162891
70
0
0
VERTEX
8
Layer 1
10
495.782648
20
67.976551
70
0
0
VERTEX
8
Layer 1
10
509.453836
20
139.083874
70
0
0
VERTEX
8
Layer 1
10
521.044630
20
139.083874
70
0
0
VERTEX
8
Layer 1
10
497.149768
20
28.422167
70
0
0
VERTEX
8
Layer 1
10
486.034493
20
28.422167
70
0
0
VERTEX
8
Layer 1
10
467.667546
20
112.739448
70
0
0
VERTEX
8
Layer 1
10
464.933307
20
125.722952
70
0
0
VERTEX
8
Layer 1
10
462.377386
20
112.739448
70
0
0
VERTEX
8
Layer 1
10
443.891566
20
28.422167
70
0
0
VERTEX
8
Layer 1
10
432.122453
20
28.422167
70
0
0
SEQEND
8
Layer 1
0
POLYLINE
8
Layer 1
62
7
70
0
10
0.000000
20
0.000000
66
1
0
VERTEX
8
Layer 1
10
531.327750
20
28.422167
70
0
0
VERTEX
8
Layer 1
10
531.327750
20
139.083874
70
0
0
VERTEX
8
Layer 1
10
542.859099
20
139.083874
70
0
0
VERTEX
8
Layer 1
10
542.859099
20
41.481152
70
0
0
VERTEX
8
Layer 1
10
585.774753
20
41.481152
70
0
0
VERTEX
8
Layer 1
10
585.774753
20
28.422167
70
0
0
VERTEX
8
Layer 1
10
531.327750
20
28.422167
70
0
0
SEQEND
8
Layer 1
0
POLYLINE
8
Layer 1
62
7
70
0
10
0.000000
20
0.000000
66
1
0
VERTEX
8
Layer 1
10
680.700355
20
41.481152
70
0
0
VERTEX
8
Layer 1
10
680.700355
20
28.422167
70
0
0
VERTEX
8
Layer 1
10
623.103030
20
28.422167
70
0
0
VERTEX
8
Layer 1
10
623.136468
20
30.851854
70
0
0
VERTEX
8
Layer 1
10
623.355655
20
33.234363
70
0
0
VERTEX
8
Layer 1
10
623.760591
20
35.569693
70
0
0
VERTEX
8
Layer 1
10
624.351277
20
37.857845
70
0
0
VERTEX
8
Layer 1
10
625.614374
20
41.580225
70
0
0
VERTEX
8
Layer 1
10
627.204391
20
45.274297
70
0
0
VERTEX
8
Layer 1
10
629.121328
20
48.940061
70
0
0
VERTEX
8
Layer 1
10
631.365184
20
52.577516
70
0
0
VERTEX
8
Layer 1
10
634.069703
20
56.342353
70
0
0
VERTEX
8
Layer 1
10
637.309182
20
60.390261
70
0
0
VERTEX
8
Layer 1
10
641.083620
20
64.721240
70
0
0
VERTEX
8
Layer 1
10
645.393017
20
69.335290
70
0
0
VERTEX
8
Layer 1
10
651.920269
20
76.346008
70
0
0
VERTEX
8
Layer 1
10
657.295871
20
82.582998
70
0
0
VERTEX
8
Layer 1
10
661.519824
20
88.046261
70
0
0
VERTEX
8
Layer 1
10
664.592129
20
92.735795
70
0
0
VERTEX
8
Layer 1
10
666.776545
20
97.014880
70
0
0
VERTEX
8
Layer 1
10
668.336842
20
101.171299
70
0
0
VERTEX
8
Layer 1
10
669.273020
20
105.205052
70
0
0
VERTEX
8
Layer 1
10
669.507065
20
107.175930
70
0
0
VERTEX
8
Layer 1
10
669.585080
20
109.116141
70
0
0
VERTEX
8
Layer 1
10
669.299025
20
112.994209
70
0
0
VERTEX
8
Layer 1
10
668.941456
20
114.812938
70
0
0
VERTEX
8
Layer 1
10
668.440860
20
116.551463
70
0
0
VERTEX
8
Layer 1
10
667.797237
20
118.209785
70
0
0
VERTEX
8
Layer 1
10
667.010586
20
119.787903
70
0
0
VERTEX
8
Layer 1
10
666.080908
20
121.285817
70
0
0
VERTEX
8
Layer 1
10
665.008202
20
122.703528
70
0
0
VERTEX
8
Layer 1
10
663.835193
20
124.012730
70
0
0
VERTEX
8
Layer 1
10
662.574881
20
125.147372
70
0
0
VERTEX
8
Layer 1
10
661.227266
20
126.107453
70
0
0
VERTEX
8
Layer 1
10
659.792349
20
126.892974
70
0
0
VERTEX
8
Layer 1
10
658.270129
20
127.503935
70
0
0
VERTEX
8
Layer 1
10
656.660606
20
127.940336
70
0
0
VERTEX
8
Layer 1
10
654.963781
20
128.202176
70
0
0
VERTEX
8
Layer 1
10
653.179653
20
128.289456
70
0
0
VERTEX
8
Layer 1
10
651.296150
20
128.197459
70
0
0
VERTEX
8
Layer 1
10
649.509237
20
127.921465
70
0
0
VERTEX
8
Layer 1
10
647.818914
20
127.461476
70
0
0
VERTEX
8
Layer 1
10
646.225180
20
126.817490
70
0
0
VERTEX
8
Layer 1
10
644.728035
20
125.989510
70
0
0
VERTEX
8
Layer 1
10
643.327481
20
124.977533
70
0
0
VERTEX
8
Layer 1
10
642.023515
20
123.781561
70
0
0
VERTEX
8
Layer 1
10
640.816140
20
122.401592
70
0
0
VERTEX
8
Layer 1
10
639.728575
20
120.858856
70
0
0
VERTEX
8
Layer 1
10
638.784038
20
119.174585
70
0
0
VERTEX
8
Layer 1
10
637.982528
20
117.348779
70
0
0
VERTEX
8
Layer 1
10
637.324045
20
115.381439
70
0
0
VERTEX
8
Layer 1
10
636.808590
20
113.272563
70
0
0
VERTEX
8
Layer 1
10
636.436162
20
111.022153
70
0
0
VERTEX
8
Layer 1
10
636.206762
20
108.630208
70
0
0
VERTEX
8
Layer 1
10
636.120389
20
106.096728
70
0
0
VERTEX
8
Layer 1
10
625.123996
20
107.530948
70
0
0
VERTEX
8
Layer 1
10
625.503853
20
111.320554
70
0
0
VERTEX
8
Layer 1
10
626.078748
20
114.876626
70
0
0
VERTEX
8
Layer 1
10
626.848681
20
118.199166
70
0
0
VERTEX
8
Layer 1
10
627.813651
20
121.288173
70
0
0
VERTEX
8
Layer 1
10
628.973658
20
124.143647
70
0
0
VERTEX
8
Layer 1
10
630.328703
20
126.765587
70
0
0
VERTEX
8
Layer 1
10
631.878785
20
129.153995
70
0
0
VERTEX
8
Layer 1
10
633.623905
20
131.308869
70
0
0
VERTEX
8
Layer 1
10
635.545487
20
133.237289
70
0
0
VERTEX
8
Layer 1
10
637.624957
20
134.908587
70
0
0
VERTEX
8
Layer 1
10
639.862314
20
136.322761
70
0
0
VERTEX
8
Layer 1
10
642.257560
20
137.479813
70
0
0
VERTEX
8
Layer 1
10
644.810692
20
138.379742
70
0
0
VERTEX
8
Layer 1
10
647.521713
20
139.022549
70
0
0
VERTEX
8
Layer 1
10
650.390621
20
139.408233
70
0
0
VERTEX
8
Layer 1
10
653.417417
20
139.536794
70
0
0
VERTEX
8
Layer 1
10
656.471145
20
139.398797
70
0
0
VERTEX
8
Layer 1
10
659.361412
20
138.984806
70
0
0
VERTEX
8
Layer 1
10
662.088220
20
138.294821
70
0
0
VERTEX
8
Layer 1
10
664.651568
20
137.328842
70
0
0
VERTEX
8
Layer 1
10
667.051455
20
136.086869
70
0
0
VERTEX
8
Layer 1
10
669.287882
20
134.568903
70
0
0
VERTEX
8
Layer 1
10
671.360849
20
132.774942
70
0
0
VERTEX
8
Layer 1
10
673.270356
20
130.704987
70
0
0
VERTEX
8
Layer 1
10
674.983899
20
128.430988
70
0
0
VERTEX
8
Layer 1
10
676.468970
20
126.024890
70
0
0
VERTEX
8
Layer 1
10
677.725568
20
123.486691
70
0
0
VERTEX
8
Layer 1
10
678.753694
20
120.816393
70
0
0
VERTEX
8
Layer 1
10
679.553347
20
118.013996
70
0
0
VERTEX
8
Layer 1
10
680.124528
20
115.079499
70
0
0
VERTEX
8
Layer 1
10
680.467237
20
112.012902
70
0
0
VERTEX
8
Layer 1
10
680.581473
20
108.814205
70
0
0
VERTEX
8
Layer 1
10
680.447733
20
105.506994
70
0
0
VERTEX
8
Layer 1
10
680.046514
20
102.228090
70
0
0
VERTEX
8
Layer 1
10
679.377814
20
98.977495
70
0
0
VERTEX
8
Layer 1
10
678.441635
20
95.755208
70
0
0
VERTEX
8
Layer 1
10
677.193396
20
92.504615
70
0
0
VERTEX
8
Layer 1
10
675.588518
20
89.169102
70
0
0
VERTEX
8
Layer 1
10
673.627001
20
85.748668
70
0
0
VERTEX
8
Layer 1
10
671.308845
20
82.243314
70
0
0
VERTEX
8
Layer 1
10
668.429719
20
78.365245
70
0
0
VERTEX
8
Layer 1
10
664.725865
20
73.826681
70
0
0
VERTEX
8
Layer 1
10
660.197283
20
68.627620
70
0
0
VERTEX
8
Layer 1
10
654.843973
20
62.768062
70
0
0
VERTEX
8
Layer 1
10
646.938458
20
54.143845
70
0
0
VERTEX
8
Layer 1
10
642.480460
20
48.803247
70
0
0
VERTEX
8
Layer 1
10
639.983982
20
45.161070
70
0
0
VERTEX
8
Layer 1
10
637.963028
20
41.481152
70
0
0
VERTEX
8
Layer 1
10
680.700355
20
41.481152
70
0
0
SEQEND
8
Layer 1
0
POLYLINE
8
Layer 1
62
7
70
0
10
0.000000
20
0.000000
66
1
0
VERTEX
8
Layer 1
10
692.172294
20
82.998170
70
0
0
VERTEX
8
Layer 1
10
692.369189
20
92.330062
70
0
0
VERTEX
8
Layer 1
10
692.959874
20
100.699514
70
0
0
VERTEX
8
Layer 1
10
693.944350
20
108.106525
70
0
0
VERTEX
8
Layer 1
10
695.322615
20
114.551096
70
0
0
VERTEX
8
Layer 1
10
697.116959
20
120.207790
70
0
0
VERTEX
8
Layer 1
10
698.156230
20
122.777835
70
0
0
VERTEX
8
Layer 1
10
699.290233
20
125.175678
70
0
0
VERTEX
8
Layer 1
10
700.518969
20
127.401320
70
0
0
VERTEX
8
Layer 1
10
701.842437
20
129.454760
70
0
0
VERTEX
8
Layer 1
10
703.260638
20
131.335999
70
0
0
VERTEX
8
Layer 1
10
704.773571
20
133.045036
70
0
0
VERTEX
8
Layer 1
10
706.398882
20
134.566542
70
0
0
VERTEX
8
Layer 1
10
708.124498
20
135.885180
70
0
0
VERTEX
8
Layer 1
10
709.950419
20
137.000951
70
0
0
VERTEX
8
Layer 1
10
711.876644
20
137.913855
70
0
0
VERTEX
8
Layer 1
10
713.903175
20
138.623891
70
0
0
VERTEX
8
Layer 1
10
716.030011
20
139.131059
70
0
0
VERTEX
8
Layer 1
10
718.257151
20
139.435360
70
0
0
VERTEX
8
Layer 1
10
720.584597
20
139.536794
70
0
0
VERTEX
8
Layer 1
10
723.983820
20
139.310337
70
0
0
VERTEX
8
Layer 1
10
727.167572
20
138.630967
70
0
0
VERTEX
8
Layer 1
10
730.135854
20
137.498684
70
0
0
VERTEX
8
Layer 1
10
732.888665
20
135.913487
70
0
0
VERTEX
8
Layer 1
10
735.418579
20
133.936712
70
0
0
VERTEX
8
Layer 1
10
737.718163
20
131.554203
70
0
0
VERTEX
8
Layer 1
10
739.787416
20
128.765958
70
0
0
VERTEX
8
Layer 1
10
741.626338
20
125.571979
70
0
0
VERTEX
8
Layer 1
10
743.257224
20
122.024159
70
0
0
VERTEX
8
Layer 1
10
744.702359
20
118.098913
70
0
0
VERTEX
8
Layer 1
10
745.961745
20
113.796240
70
0
0
VERTEX
8
Layer 1
10
747.035380
20
109.116141
70
0
0
VERTEX
8
Layer 1
10
747.893545
20
103.860464
70
0
0
VERTEX
8
Layer 1
10
748.506520
20
97.755576
70
0
0
VERTEX
8
Layer 1
10
748.874305
20
90.801478
70
0
0
VERTEX
8
Layer 1
10
748.996900
20
82.998170
70
0
0
VERTEX
8
Layer 1
10
748.800005
20
73.727606
70
0
0
VERTEX
8
Layer 1
10
748.209320
20
65.391177
70
0
0
VERTEX
8
Layer 1
10
747.224844
20
57.988884
70
0
0
VERTEX
8
Layer 1
10
745.846579
20
51.520725
70
0
0
VERTEX
8
Layer 1
10
744.074523
20
45.892335
70
0
0
VERTEX
8
Layer 1
10
743.040825
20
43.329366
70
0
0
VERTEX
8
Layer 1
10
741.908679
20
40.933880
70
0
0
VERTEX
8
Layer 1
10
740.678086
20
38.705878
70
0
0
VERTEX
8
Layer 1
10
739.349046
20
36.645360
70
0
0
VERTEX
8
Layer 1
10
737.921558
20
34.752325
70
0
0
VERTEX
8
Layer 1
10
736.395623
20
33.026773
70
0
0
VERTEX
8
Layer 1
10
734.783314
20
31.505270
70
0
0
VERTEX
8
Layer 1
10
733.066985
20
30.186634
70
0
0
VERTEX
8
Layer 1
10
731.246636
20
29.070865
70
0
0
VERTEX
8
Layer 1
10
729.322268
20
28.157963
70
0
0
VERTEX
8
Layer 1
10
727.293880
20
27.447928
70
0
0
VERTEX
8
Layer 1
10
725.161472
20
26.940761
70
0
0
VERTEX
8
Layer 1
10
722.925044
20
26.636460
70
0
0
VERTEX
8
Layer 1
10
720.584597
20
26.535026
70
0
0
VERTEX
8
Layer 1
10
717.518796
20
26.714304
70
0
0
VERTEX
8
Layer 1
10
714.622027
20
27.252138
70
0
0
VERTEX
8
Layer 1
10
711.894290
20
28.148528
70
0
0
VERTEX
8
Layer 1
10
709.335585
20
29.403474
70
0
0
VERTEX
8
Layer 1
10
706.945912
20
31.016977
70
0
0
VERTEX
8
Layer 1
10
704.725271
20
32.989035
70
0
0
VERTEX
8
Layer 1
10
702.673662
20
35.319649
70
0
0
VERTEX
8
Layer 1
10
700.791085
20
38.008819
70
0
0
VERTEX
8
Layer 1
10
698.771056
20
41.733555
70
0
0
VERTEX
8
Layer 1
10
697.020364
20
46.000844
70
0
0
VERTEX
8
Layer 1
10
695.539009
20
50.810684
70
0
0
VERTEX
8
Layer 1
10
694.326992
20
56.163077
70
0
0
VERTEX
8
Layer 1
10
693.384311
20
62.058022
70
0
0
VERTEX
8
Layer 1
10
692.710968
20
68.495519
70
0
0
VERTEX
8
Layer 1
10
692.306963
20
75.475568
70
0
0
VERTEX
8
Layer 1
10
692.172294
20
82.998170
70
0
0
VERTEX
8
Layer 1
10
692.172294
20
82.998170
70
0
0
SEQEND
8
Layer 1
0
POLYLINE
8
Layer 1
62
7
70
0
10
0.000000
20
0.000000
66
1
0
VERTEX
8
Layer 1
10
703.168688
20
82.998170
70
0
0
VERTEX
8
Layer 1
10
703.246703
20
76.469853
70
0
0
VERTEX
8
Layer 1
10
703.480748
20
70.510037
70
0
0
VERTEX
8
Layer 1
10
703.870822
20
65.118722
70
0
0
VERTEX
8
Layer 1
10
704.416927
20
60.295907
70
0
0
VERTEX
8
Layer 1
10
705.119062
20
56.041593
70
0
0
VERTEX
8
Layer 1
10
705.977227
20
52.355779
70
0
0
VERTEX
8
Layer 1
10
706.991422
20
49.238465
70
0
0
VERTEX
8
Layer 1
10
708.161647
20
46.689652
70
0
0
VERTEX
8
Layer 1
10
709.460968
20
44.584316
70
0
0
VERTEX
8
Layer 1
10
710.832730
20
42.759691
70
0
0
VERTEX
8
Layer 1
10
712.276935
20
41.215777
70
0
0
VERTEX
8
Layer 1
10
713.793583
20
39.952575
70
0
0
VERTEX
8
Layer 1
10
715.382673
20
38.970085
70
0
0
VERTEX
8
Layer 1
10
717.044205
20
38.268306
70
0
0
VERTEX
8
Layer 1
10
718.778180
20
37.847239
70
0
0
VERTEX
8
Layer 1
10
720.584597
20
37.706883
70
0
0
VERTEX
8
Layer 1
10
722.390085
20
37.848418
70
0
0
VERTEX
8
Layer 1
10
724.121274
20
38.273024
70
0
0
VERTEX
8
Layer 1
10
725.778163
20
38.980700
70
0
0
VERTEX
8
Layer 1
10
727.360752
20
39.971446
70
0
0
VERTEX
8
Layer 1
10
728.869041
20
41.245262
70
0
0
VERTEX
8
Layer 1
10
730.303031
20
42.802149
70
0
0
VERTEX
8
Layer 1
10
731.662720
20
44.642106
70
0
0
VERTEX
8
Layer 1
10
732.948110
20
46.765134
70
0
0
VERTEX
8
Layer 1
10
734.132266
20
49.312770
70
0
0
VERTEX
8
Layer 1
10
735.158534
20
52.426547
70
0
0
VERTEX
8
Layer 1
10
736.026914
20
56.106465
70
0
0
VERTEX
8
Layer 1
10
736.737407
20
60.352524
70
0
0
VERTEX
8
Layer 1
10
737.290013
20
65.164724
70
0
0
VERTEX
8
Layer 1
10
737.684732
20
70.543065
70
0
0
VERTEX
8
Layer 1
10
737.921563
20
76.487547
70
0
0
VERTEX
8
Layer 1
10
738.000506
20
82.998170
70
0
0
VERTEX
8
Layer 1
10
737.921563
20
89.542995
70
0
0
VERTEX
8
Layer 1
10
737.684732
20
95.514603
70
0
0
VERTEX
8
Layer 1
10
737.290013
20
100.912994
70
0
0
VERTEX
8
Layer 1
10
736.737407
20
105.738167
70
0
0
VERTEX
8
Layer 1
10
736.026914
20
109.990123
70
0
0
VERTEX
8
Layer 1
10
735.158534
20
113.668862
70
0
0
VERTEX
8
Layer 1
10
734.132266
20
116.774383
70
0
0
VERTEX
8
Layer 1
10
732.948110
20
119.306687
70
0
0
VERTEX
8
Layer 1
10
731.660863
20
121.412024
70
0
0
VERTEX
8
Layer 1
10
730.295601
20
123.236649
70
0
0
VERTEX
8
Layer 1
10
728.852323
20
124.780562
70
0
0
VERTEX
8
Layer 1
10
727.331031
20
126.043764
70
0
0
VERTEX
8
Layer 1
10
725.731725
20
127.026254
70
0
0
VERTEX
8
Layer 1
10
724.054403
20
127.728033
70
0
0
VERTEX
8
Layer 1
10
722.299066
20
128.149101
70
0
0
VERTEX
8
Layer 1
10
720.465715
20
128.289456
70
0
0
VERTEX
8
Layer 1
10
718.669514
20
128.165613
70
0
0
VERTEX
8
Layer 1
10
716.966188
20
127.794083
70
0
0
VERTEX
8
Layer 1
10
715.355737
20
127.174866
70
0
0
VERTEX
8
Layer 1
10
713.838160
20
126.307962
70
0
0
VERTEX
8
Layer 1
10
712.413459
20
125.193371
70
0
0
VERTEX
8
Layer 1
10
711.081632
20
123.831094
70
0
0
VERTEX
8
Layer 1
10
709.842680
20
122.221130
70
0
0
VERTEX
8
Layer 1
10
708.696603
20
120.363479
70
0
0
VERTEX
8
Layer 1
10
707.400997
20
117.566978
70
0
0
VERTEX
8
Layer 1
10
706.278140
20
114.235002
70
0
0
VERTEX
8
Layer 1
10
705.328029
20
110.367551
70
0
0
VERTEX
8
Layer 1
10
704.550666
20
105.964625
70
0
0
VERTEX
8
Layer 1
10
703.946051
20
101.026223
70
0
0
VERTEX
8
Layer 1
10
703.514182
20
95.552347
70
0
0
VERTEX
8
Layer 1
10
703.255061
20
89.542996
70
0
0
VERTEX
8
Layer 1
10
703.168688
20
82.998170
70
0
0
VERTEX
8
Layer 1
10
703.168688
20
82.998170
70
0
0
SEQEND
8
Layer 1
0
POLYLINE
8
Layer 1
62
7
70
0
10
0.000000
20
0.000000
66
1
0
VERTEX
8
Layer 1
10
816.104582
20
41.481152
70
0
0
VERTEX
8
Layer 1
10
816.104582
20
28.422167
70
0
0
VERTEX
8
Layer 1
10
758.507265
20
28.422167
70
0
0
VERTEX
8
Layer 1
10
758.540700
20
30.851854
70
0
0
VERTEX
8
Layer 1
10
758.759884
20
33.234363
70
0
0
VERTEX
8
Layer 1
10
759.164818
20
35.569693
70
0
0
VERTEX
8
Layer 1
10
759.755503
20
37.857845
70
0
0
VERTEX
8
Layer 1
10
761.018601
20
41.580225
70
0
0
VERTEX
8
Layer 1
10
762.608620
20
45.274297
70
0
0
VERTEX
8
Layer 1
10
764.525559
20
48.940061
70
0
0
VERTEX
8
Layer 1
10
766.769420
20
52.577516
70
0
0
VERTEX
8
Layer 1
10
769.473938
20
56.342353
70
0
0
VERTEX
8
Layer 1
10
772.713417
20
60.390261
70
0
0
VERTEX
8
Layer 1
10
776.487855
20
64.721240
70
0
0
VERTEX
8
Layer 1
10
780.797253
20
69.335290
70
0
0
VERTEX
8
Layer 1
10
787.324500
20
76.346008
70
0
0
VERTEX
8
Layer 1
10
792.700100
20
82.582998
70
0
0
VERTEX
8
Layer 1
10
796.924051
20
88.046261
70
0
0
VERTEX
8
Layer 1
10
799.996355
20
92.735795
70
0
0
VERTEX
8
Layer 1
10
802.180775
20
97.014880
70
0
0
VERTEX
8
Layer 1
10
803.741075
20
101.171299
70
0
0
VERTEX
8
Layer 1
10
804.677255
20
105.205052
70
0
0
VERTEX
8
Layer 1
10
804.911300
20
107.175930
70
0
0
VERTEX
8
Layer 1
10
804.989315
20
109.116141
70
0
0
VERTEX
8
Layer 1
10
804.703260
20
112.994209
70
0
0
VERTEX
8
Layer 1
10
804.345692
20
114.812938
70
0
0
VERTEX
8
Layer 1
10
803.845096
20
116.551463
70
0
0
VERTEX
8
Layer 1
10
803.201472
20
118.209785
70
0
0
VERTEX
8
Layer 1
10
802.414821
20
119.787903
70
0
0
VERTEX
8
Layer 1
10
801.485143
20
121.285817
70
0
0
VERTEX
8
Layer 1
10
800.412437
20
122.703528
70
0
0
VERTEX
8
Layer 1
10
799.239426
20
124.012730
70
0
0
VERTEX
8
Layer 1
10
797.979113
20
125.147372
70
0
0
VERTEX
8
Layer 1
10
796.631497
20
126.107453
70
0
0
VERTEX
8
Layer 1
10
795.196580
20
126.892974
70
0
0
VERTEX
8
Layer 1
10
793.674360
20
127.503935
70
0
0
VERTEX
8
Layer 1
10
792.064838
20
127.940336
70
0
0
VERTEX
8
Layer 1
10
790.368014
20
128.202176
70
0
0
VERTEX
8
Layer 1
10
788.583888
20
128.289456
70
0
0
VERTEX
8
Layer 1
10
786.700384
20
128.197459
70
0
0
VERTEX
8
Layer 1
10
784.913469
20
127.921465
70
0
0
VERTEX
8
Layer 1
10
783.223145
20
127.461476
70
0
0
VERTEX
8
Layer 1
10
781.629410
20
126.817490
70
0
0
VERTEX
8
Layer 1
10
780.132266
20
125.989510
70
0
0
VERTEX
8
Layer 1
10
778.731713
20
124.977533
70
0
0
VERTEX
8
Layer 1
10
777.427749
20
123.781561
70
0
0
VERTEX
8
Layer 1
10
776.220375
20
122.401592
70
0
0
VERTEX
8
Layer 1
10
775.132808
20
120.858856
70
0
0
VERTEX
8
Layer 1
10
774.188269
20
119.174585
70
0
0
VERTEX
8
Layer 1
10
773.386758
20
117.348779
70
0
0
VERTEX
8
Layer 1
10
772.728274
20
115.381439
70
0
0
VERTEX
8
Layer 1
10
772.212818
20
113.272563
70
0
0
VERTEX
8
Layer 1
10
771.840389
20
111.022153
70
0
0
VERTEX
8
Layer 1
10
771.610989
20
108.630208
70
0
0
VERTEX
8
Layer 1
10
771.524616
20
106.096728
70
0
0
VERTEX
8
Layer 1
10
760.528222
20
107.530948
70
0
0
VERTEX
8
Layer 1
10
760.908080
20
111.320554
70
0
0
VERTEX
8
Layer 1
10
761.482975
20
114.876626
70
0
0
VERTEX
8
Layer 1
10
762.252909
20
118.199166
70
0
0
VERTEX
8
Layer 1
10
763.217880
20
121.288173
70
0
0
VERTEX
8
Layer 1
10
764.377888
20
124.143647
70
0
0
VERTEX
8
Layer 1
10
765.732934
20
126.765587
70
0
0
VERTEX
8
Layer 1
10
767.283018
20
129.153995
70
0
0
VERTEX
8
Layer 1
10
769.028140
20
131.308869
70
0
0
VERTEX
8
Layer 1
10
770.949722
20
133.237289
70
0
0
VERTEX
8
Layer 1
10
773.029192
20
134.908587
70
0
0
VERTEX
8
Layer 1
10
775.266548
20
136.322761
70
0
0
VERTEX
8
Layer 1
10
777.661793
20
137.479813
70
0
0
VERTEX
8
Layer 1
10
780.214924
20
138.379742
70
0
0
VERTEX
8
Layer 1
10
782.925943
20
139.022549
70
0
0
VERTEX
8
Layer 1
10
785.794849
20
139.408233
70
0
0
VERTEX
8
Layer 1
10
788.821643
20
139.536794
70
0
0
VERTEX
8
Layer 1
10
791.875371
20
139.398797
70
0
0
VERTEX
8
Layer 1
10
794.765639
20
138.984806
70
0
0
VERTEX
8
Layer 1
10
797.492448
20
138.294821
70
0
0
VERTEX
8
Layer 1
10
800.055796
20
137.328842
70
0
0
VERTEX
8
Layer 1
10
802.455685
20
136.086869
70
0
0
VERTEX
8
Layer 1
10
804.692114
20
134.568903
70
0
0
VERTEX
8
Layer 1
10
806.765083
20
132.774942
70
0
0
VERTEX
8
Layer 1
10
808.674592
20
130.704987
70
0
0
VERTEX
8
Layer 1
10
810.388135
20
128.430988
70
0
0
VERTEX
8
Layer 1
10
811.873205
20
126.024890
70
0
0
VERTEX
8
Layer 1
10
813.129803
20
123.486691
70
0
0
VERTEX
8
Layer 1
10
814.157929
20
120.816393
70
0
0
VERTEX
8
Layer 1
10
814.957583
20
118.013996
70
0
0
VERTEX
8
Layer 1
10
815.528764
20
115.079499
70
0
0
VERTEX
8
Layer 1
10
815.871472
20
112.012902
70
0
0
VERTEX
8
Layer 1
10
815.985708
20
108.814205
70
0
0
VERTEX
8
Layer 1
10
815.851969
20
105.506994
70
0
0
VERTEX
8
Layer 1
10
815.450749
20
102.228090
70
0
0
VERTEX
8
Layer 1
10
814.782049
20
98.977495
70
0
0
VERTEX
8
Layer 1
10
813.845870
20
95.755208
70
0
0
VERTEX
8
Layer 1
10
812.597630
20
92.504615
70
0
0
VERTEX
8
Layer 1
10
810.992751
20
89.169102
70
0
0
VERTEX
8
Layer 1
10
809.031231
20
85.748668
70
0
0
VERTEX
8
Layer 1
10
806.713071
20
82.243314
70
0
0
VERTEX
8
Layer 1
10
803.833949
20
78.365245
70
0
0
VERTEX
8
Layer 1
10
800.130096
20
73.826681
70
0
0
VERTEX
8
Layer 1
10
795.601513
20
68.627620
70
0
0
VERTEX
8
Layer 1
10
790.248199
20
62.768062
70
0
0
VERTEX
8
Layer 1
10
782.342686
20
54.143845
70
0
0
VERTEX
8
Layer 1
10
777.884695
20
48.803247
70
0
0
VERTEX
8
Layer 1
10
775.388215
20
45.161070
70
0
0
VERTEX
8
Layer 1
10
773.367254
20
41.481152
70
0
0
VERTEX
8
Layer 1
10
816.104582
20
41.481152
70
0
0
SEQEND
8
Layer 1
0
POLYLINE
8
Layer 1
62
7
70
0
10
0.000000
20
0.000000
66
1
0
VERTEX
8
Layer 1
10
827.576529
20
57.408589
70
0
0
VERTEX
8
Layer 1
10
838.810678
20
58.616354
70
0
0
VERTEX
8
Layer 1
10
839.639122
20
53.728672
70
0
0
VERTEX
8
Layer 1
10
840.876216
20
49.482614
70
0
0
VERTEX
8
Layer 1
10
841.648007
20
47.600194
70
0
0
VERTEX
8
Layer 1
10
842.521961
20
45.878181
70
0
0
VERTEX
8
Layer 1
10
843.498078
20
44.316573
70
0
0
VERTEX
8
Layer 1
10
844.576357
20
42.915372
70
0
0
VERTEX
8
Layer 1
10
845.749367
20
41.694632
70
0
0
VERTEX
8
Layer 1
10
846.979960
20
40.636658
70
0
0
VERTEX
8
Layer 1
10
848.268136
20
39.741449
70
0
0
VERTEX
8
Layer 1
10
849.613894
20
39.009005
70
0
0
VERTEX
8
Layer 1
10
851.017234
20
38.439327
70
0
0
VERTEX
8
Layer 1
10
852.478157
20
38.032414
70
0
0
VERTEX
8
Layer 1
10
853.996662
20
37.788266
70
0
0
VERTEX
8
Layer 1
10
855.572750
20
37.706883
70
0
0
VERTEX
8
Layer 1
10
857.467398
20
37.822470
70
0
0
VERTEX
8
Layer 1
10
859.287746
20
38.169232
70
0
0
VERTEX
8
Layer 1
10
861.033794
20
38.747167
70
0
0
VERTEX
8
Layer 1
10
862.705542
20
39.556277
70
0
0
VERTEX
8
Layer 1
10
864.302990
20
40.596561
70
0
0
VERTEX
8
Layer 1
10
865.826139
20
41.868020
70
0
0
VERTEX
8
Layer 1
10
867.274988
20
43.370652
70
0
0
VERTEX
8
Layer 1
10
868.649537
20
45.104459
70
0
0
VERTEX
8
Layer 1
10
869.903349
20
47.029339
70
0
0
VERTEX
8
Layer 1
10
870.989985
20
49.105189
70
0
0
VERTEX
8
Layer 1
10
871.909447
20
51.332011
70
0
0
VERTEX
8
Layer 1
10
872.661734
20
53.709803
70
0
0
VERTEX
8
Layer 1
10
873.246846
20
56.238567
70
0
0
VERTEX
8
Layer 1
10
873.664784
20
58.918302
70
0
0
VERTEX
8
Layer 1
10
873.915546
20
61.749007
70
0
0
VERTEX
8
Layer 1
10
873.999133
20
64.730684
70
0
0
VERTEX
8
Layer 1
10
873.918332
20
67.560210
70
0
0
VERTEX
8
Layer 1
10
873.675929
20
70.236406
70
0
0
VERTEX
8
Layer 1
10
873.271922
20
72.759273
70
0
0
VERTEX
8
Layer 1
10
872.706314
20
75.128808
70
0
0
VERTEX
8
Layer 1
10
871.979103
20
77.345014
70
0
0
VERTEX
8
Layer 1
10
871.090289
20
79.407890
70
0
0
VERTEX
8
Layer 1
10
870.039874
20
81.317435
70
0
0
VERTEX
8
Layer 1
10
868.827855
20
83.073651
70
0
0
VERTEX
8
Layer 1
10
867.499744
20
84.648232
70
0
0
VERTEX
8
Layer 1
10
866.071328
20
86.012869
70
0
0
VERTEX
8
Layer 1
10
864.542607
20
87.167562
70
0
0
VERTEX
8
Layer 1
10
862.913581
20
88.112310
70
0
0
VERTEX
8
Layer 1
10
861.184249
20
88.847115
70
0
0
VERTEX
8
Layer 1
10
859.354612
20
89.371975
70
0
0
VERTEX
8
Layer 1
10
857.424670
20
89.686891
70
0
0
VERTEX
8
Layer 1
10
855.394423
20
89.791863
70
0
0
VERTEX
8
Layer 1
10
852.871942
20
89.603149
70
0
0
VERTEX
8
Layer 1
10
850.475770
20
89.037007
70
0
0
VERTEX
8
Layer 1
10
848.205905
20
88.093437
70
0
0
VERTEX
8
Layer 1
10
846.062349
20
86.772439
70
0
0
VERTEX
8
Layer 1
10
844.093402
20
85.187245
70
0
0
VERTEX
8
Layer 1
10
842.347354
20
83.375595
70
0
0
VERTEX
8
Layer 1
10
840.824207
20
81.337489
70
0
0
VERTEX
8
Layer 1
10
839.523960
20
79.072927
70
0
0
VERTEX
8
Layer 1
10
829.478604
20
80.733601
70
0
0
VERTEX
8
Layer 1
10
837.919077
20
137.574173
70
0
0
VERTEX
8
Layer 1
10
881.250832
20
137.574173
70
0
0
VERTEX
8
Layer 1
10
881.250832
20
124.590668
70
0
0
VERTEX
8
Layer 1
10
846.478431
20
124.590668
70
0
0
VERTEX
8
Layer 1
10
841.782672
20
94.849390
70
0
0
VERTEX
8
Layer 1
10
843.756266
20
96.477044
70
0
0
VERTEX
8
Layer 1
10
845.754007
20
97.887677
70
0
0
VERTEX
8
Layer 1
10
847.775895
20
99.081290
70
0
0
VERTEX
8
Layer 1
10
849.821930
20
100.057882
70
0
0
VERTEX
8
Layer 1
10
851.892113
20
100.817454
70
0
0
VERTEX
8
Layer 1
10
853.986443
20
101.360005
70
0
0
VERTEX
8
Layer 1
10
856.104920
20
101.685536
70
0
0
VERTEX
8
Layer 1
10
858.247544
20
101.794046
70
0
0
VERTEX
8
Layer 1
10
861.044938
20
101.637178
70
0
0
VERTEX
8
Layer 1
10
863.730882
20
101.166573
70
0
0
VERTEX
8
Layer 1
10
866.305376
20
100.382233
70
0
0
VERTEX
8
Layer 1
10
868.768421
20
99.284156
70
0
0
VERTEX
8
Layer 1
10
871.120016
20
97.872342
70
0
0
VERTEX
8
Layer 1
10
873.360160
20
96.146793
70
0
0
VERTEX
8
Layer 1
10
875.488855
20
94.107507
70
0
0
VERTEX
8
Layer 1
10
877.506101
20
91.754485
70
0
0
VERTEX
8
Layer 1
10
879.345030
20
89.154953
70
0
0
VERTEX
8
Layer 1
10
880.938769
20
86.376143
70
0
0
VERTEX
8
Layer 1
10
882.287317
20
83.418055
70
0
0
VERTEX
8
Layer 1
10
883.390675
20
80.280689
70
0
0
VERTEX
8
Layer 1
10
884.248842
20
76.964046
70
0
0
VERTEX
8
Layer 1
10
884.861818
20
73.468125
70
0
0
VERTEX
8
Layer 1
10
885.229604
20
69.792926
70
0
0
VERTEX
8
Layer 1
10
885.352199
20
65.938449
70
0
0
VERTEX
8
Layer 1
10
885.244463
20
62.246738
70
0
0
VERTEX
8
Layer 1
10
884.921256
20
58.682408
70
0
0
VERTEX
8
Layer 1
10
884.382576
20
55.245460
70
0
0
VERTEX
8
Layer 1
10
883.628425
20
51.935893
70
0
0
VERTEX
8
Layer 1
10
882.658802
20
48.753708
70
0
0
VERTEX
8
Layer 1
10
881.473707
20
45.698904
70
0
0
VERTEX
8
Layer 1
10
880.073141
20
42.771481
70
0
0
VERTEX
8
Layer 1
10
878.457103
20
39.971440
70
0
0
VERTEX
8
Layer 1
10
876.266189
20
36.822281
70
0
0
VERTEX
8
Layer 1
10
873.883952
20
34.093009
70
0
0
VERTEX
8
Layer 1
10
871.310392
20
31.783625
70
0
0
VERTEX
8
Layer 1
10
868.545510
20
29.894130
70
0
0
VERTEX
8
Layer 1
10
865.589304
20
28.424522
70
0
0
VERTEX
8
Layer 1
10
862.441776
20
27.374802
70
0
0
VERTEX
8
Layer 1
10
859.102924
20
26.744970
70
0
0
VERTEX
8
Layer 1
10
855.572750
20
26.535026
70
0
0
VERTEX
8
Layer 1
10
852.668550
20
26.667126
70
0
0
VERTEX
8
Layer 1
10
849.899948
20
27.063425
70
0
0
VERTEX
8
Layer 1
10
847.266943
20
27.723923
70
0
0
VERTEX
8
Layer 1
10
844.769536
20
28.648621
70
0
0
VERTEX
8
Layer 1
10
842.407727
20
29.837518
70
0
0
VERTEX
8
Layer 1
10
840.181515
20
31.290615
70
0
0
VERTEX
8
Layer 1
10
838.090901
20
33.007910
70
0
0
VERTEX
8
Layer 1
10
836.135884
20
34.989406
70
0
0
VERTEX
8
Layer 1
10
834.363830
20
37.189098
70
0
0
VERTEX
8
Layer 1
10
832.792386
20
39.560993
70
0
0
VERTEX
8
Layer 1
10
831.421552
20
42.105088
70
0
0
VERTEX
8
Layer 1
10
830.251328
20
44.821385
70
0
0
VERTEX
8
Layer 1
10
829.281713
20
47.709884
70
0
0
VERTEX
8
Layer 1
10
828.512709
20
50.770584
70
0
0
VERTEX
8
Layer 1
10
827.944314
20
54.003486
70
0
0
VERTEX
8
Layer 1
10
827.576529
20
57.408589
70
0
0
VERTEX
8
Layer 1
10
827.576529
20
57.408589
70
0
0
SEQEND
8
Layer 1
 0 
ENDSEC
 0 
EOF