<?xml version="1.0" encoding="UTF-8" standalone="no"?>
<!-- Created with Inkscape (http://www.inkscape.org/) -->

<svg
   width="920mm"
   height="430mm"
   viewBox="0 0 920 430"
   version="1.1"
   id="svg1"
   inkscape:version="1.4.2 (f4327f4, 2025-05-13)"
   sodipodi:docname="half_icons.svg"
   xml:space="preserve"
   xmlns:inkscape="http://www.inkscape.org/namespaces/inkscape"
   xmlns:sodipodi="http://sodipodi.sourceforge.net/DTD/sodipodi-0.dtd"
   xmlns="http://www.w3.org/2000/svg"
   xmlns:svg="http://www.w3.org/2000/svg"><sodipodi:namedview
     id="namedview1"
     pagecolor="#ffffff"
     bordercolor="#000000"
     borderopacity="0.25"
     inkscape:showpageshadow="2"
     inkscape:pageopacity="0.0"
     inkscape:pagecheckerboard="0"
     inkscape:deskcolor="#d1d1d1"
     inkscape:document-units="mm"
     inkscape:zoom="0.40422454"
     inkscape:cx="482.40515"
     inkscape:cy="1589.4631"
     inkscape:window-width="3840"
     inkscape:window-height="2054"
     inkscape:window-x="-11"
     inkscape:window-y="-11"
     inkscape:window-maximized="1"
     inkscape:current-layer="layer1" /><defs
     id="defs1"><inkscape:path-effect
       effect="perspective-envelope"
       up_left_point="302.97624,-108.80601"
       up_right_point="405.55794,-108.80601"
       down_left_point="293.10325,-28.470581"
       down_right_point="415.43093,-28.470581"
       id="path-effect18"
       is_visible="true"
       lpeversion="1"
       deform_type="perspective"
       horizontal_mirror="false"
       vertical_mirror="true"
       overflow_perspective="false" /></defs><g
     inkscape:label="Layer 1"
     inkscape:groupmode="layer"
     id="layer1"
     transform="translate(-12.58998,-31.945197)"><g
       id="g7"
       transform="translate(14.164622)"
       style="stroke-width:0.1;stroke-dasharray:none"><g
         id="g6"
         style="fill:#1a79ee;fill-opacity:0.996326;stroke-width:0.01028358;stroke-dasharray:none"
         transform="matrix(9.7242403,0,0,9.7242403,-3053.4755,4099.9511)"><path
           style="fill:#1a79ee;fill-opacity:0.996326;fill-rule:evenodd;stroke:#0679ee;stroke-width:0.01028358;stroke-dasharray:none;stroke-dashoffset:3.89358;stroke-opacity:1;paint-order:fill markers stroke"
           d="m 359.47862,-412.77753 c 1.01524,-4.23795 17.28907,-3.81923 17.83636,0.36819 0.33555,2.56735 1.06363,8.03864 1.06363,8.03864 0,0 0.2238,7.75743 0.0614,8.42726 -0.30328,1.25089 -1.90228,1.00227 -1.90228,1.00227 0,0 0.0166,1.27864 -0.0205,1.88182 -0.0886,1.43832 -2.6144,1.37721 -2.65908,0.0409 -0.017,-0.50929 0.0205,-1.88184 0.0205,-1.88184 l -10.88183,0.0614 c 0,0 -0.0278,0.85907 -0.0409,1.45226 -0.0423,1.91543 -2.98601,1.8606 -2.90452,0.0614 0.0141,-0.3115 -0.0409,-1.65682 -0.0409,-1.65682 0,0 -1.70919,0.14469 -1.71817,-1.04318 -0.002,-0.22617 0.0409,-8.44772 0.0409,-8.44772 0.54501,-4.0012 0.6708,-6.32348 1.14539,-8.30458 z"
           id="path2"
           sodipodi:nodetypes="sscscssccsscscs" /><circle
           style="fill:#ffffff;fill-opacity:1;fill-rule:evenodd;stroke:#0679ee;stroke-width:0.01028358;stroke-dasharray:none;stroke-dashoffset:3.89358;stroke-opacity:1;paint-order:fill markers stroke"
           id="path3"
           cy="-399.44116"
           cx="361.5036"
           r="1.4" /><circle
           style="fill:#ffffff;fill-opacity:1;fill-rule:evenodd;stroke:#0679ee;stroke-width:0.01028358;stroke-dasharray:none;stroke-dashoffset:3.89358;stroke-opacity:1;paint-order:fill markers stroke"
           id="path4"
           cx="375.23883"
           cy="-399.40024"
           r="1.4" /><path
           style="fill:#ffffff;fill-opacity:1;fill-rule:evenodd;stroke:#0679ee;stroke-width:0.01028358;stroke-dasharray:none;stroke-dashoffset:3.89358;stroke-opacity:1;paint-order:fill markers stroke"
           d="m 361.76952,-411.4889 c -0.692,0.006 -0.83201,0.27581 -0.87953,0.6341 -0.4274,3.22215 -0.50467,3.95294 -0.67501,5.62499 -0.0358,0.35181 0.23954,0.8784 0.59317,0.87956 5.06842,0.0166 10.39817,0.0553 15.13637,0 0.64629,-0.008 0.71191,-0.21516 0.675,-0.49091 -0.24907,-1.86064 -0.49561,-4.13702 -0.81817,-6.01364 -0.0784,-0.45637 -0.23949,-0.57082 -0.49093,-0.57271 -4.50557,-0.0339 -9.02795,-0.10291 -13.5409,-0.0614 z"
           id="path5"
           sodipodi:nodetypes="sssssssss" /><path
           style="fill:#fdffff;fill-opacity:0.996326;fill-rule:evenodd;stroke:#0679ee;stroke-width:0.01028358;stroke-dasharray:none;stroke-dashoffset:3.89358;stroke-opacity:1;paint-order:fill markers stroke"
           d="m 364.22407,-413.98434 c -0.91408,0.003 -0.7909,1.08686 0.12278,1.08403 2.53699,-0.008 4.80591,0.01 8.1,0 0.81182,-0.002 0.83199,-1.05614 0.0409,-1.08403 -2.65538,-0.0936 -5.75481,-0.009 -8.26368,0 z"
           id="path6"
           sodipodi:nodetypes="sssss" /></g><path
         style="fill:#0679ee;fill-opacity:1;stroke:none;stroke-width:0.1;stroke-dasharray:none"
         d="m 383.96306,169.48244 c -2.9326,0.23288 -5.89406,1.04028 -8.8003,1.52389 -1.50506,0.251 -3.15794,0.30818 -4.51296,1.07793 -5.68949,3.23283 -6.2385,10.01768 -4.64195,15.67496 1.2118,4.29514 4.17089,8.32519 6.35144,12.18498 4.39471,7.77912 7.85275,16.32799 4.90858,25.27248 -2.3108,7.02038 -7.98076,13.08791 -13.8387,17.4009 -2.05979,1.5165 -4.26265,2.93092 -6.54389,4.09057 -1.03052,0.52433 -2.44006,0.92455 -2.67754,2.20496 -0.49365,2.66234 -0.54385,5.42941 -0.72792,8.11979 -0.0837,1.24806 -0.39324,2.57616 0.72931,3.49443 2.31289,1.89008 8.19858,0.44624 11.02408,0.56756 l -0.67772,1.12813 v 0.22591 l 4.96422,1.35404 v 0.45181 l -5.18984,0.67633 2.03078,2.70766 c -1.86066,0.19244 -3.85658,-0.68469 -5.6411,-1.15463 -3.13772,-0.82553 -6.26317,-1.47662 -9.47718,-1.90891 -0.99984,-0.13944 -4.14774,0.0976 -4.54657,-1.0598 -0.49922,-1.44204 2.45722,-2.24052 2.83778,-3.54924 0.86039,-2.96076 -0.31376,-6.87479 -0.32213,-9.92759 -1.26201,0.29144 -3.74014,0.78927 -4.5449,1.8679 -0.62612,0.83809 -0.56058,2.32126 -0.6805,3.32194 -0.31376,2.62581 -0.39743,5.2777 -0.70561,7.89765 -0.14503,1.22714 -0.37512,2.57324 0.57871,3.55886 2.03343,2.10092 7.2382,0.61775 9.86456,0.7321 1.15743,0.0558 1.48596,0.71118 0.45182,1.34986 v 0.2259 c 1.68328,0.0279 4.00467,0.29284 5.18984,1.57953 l -5.18984,0.90223 2.03078,2.48218 c -1.76862,0.37791 -4.14663,-0.63728 -5.86686,-1.12814 -3.03481,-0.86736 -6.12373,-1.4854 -9.25142,-1.86944 -1.00821,-0.1255 -4.19725,0.0837 -4.57794,-1.11419 -0.45042,-1.4101 2.62093,-2.31944 2.92074,-3.7856 0.77673,-3.80024 -0.43229,-8.75623 -0.59963,-12.63596 -7.29816,0.98311 -13.86882,1.69039 -20.53388,-2.4402 -4.1101,-2.54716 -6.47849,-6.84998 -11.28234,-8.38446 -4.56999,-1.45989 -9.11363,-2.76178 -13.53888,-4.65004 -1.65316,-0.70561 -3.89702,-1.3164 -4.73859,-3.0284 3.37241,-1.79819 5.93449,-4.65199 9.47718,-6.24784 2.98419,-1.34428 6.05874,-0.80043 8.80029,-2.78073 6.95889,-5.02711 12.8337,-12.23547 21.21077,-14.94746 5.59452,-1.81129 11.57797,-1.99229 17.37483,-2.61298 3.55802,-0.38069 7.09959,-0.84924 9.26173,-4.09908 1.88171,-2.82829 2.02088,-6.2014 2.02074,-9.47718 -5.5e-4,-7.41418 -2.61465,-14.69463 -2.94235,-22.11341 -0.16455,-3.71183 -0.56616,-8.31376 2.33324,-11.21443 0.84924,-0.84924 1.97096,-1.48498 3.09115,-1.90109 7.23318,-2.68689 11.39822,2.90833 17.1492,6.14855 2.08894,1.17694 6.31993,1.55289 7.4464,3.80791 z"
         id="path19" /></g><text
       xml:space="preserve"
       style="font-style:normal;font-variant:normal;font-weight:normal;font-stretch:normal;font-size:274.365px;font-family:'5x8 LCD HD44780U A02';-inkscape-font-specification:'5x8 LCD HD44780U A02, Normal';font-variant-ligatures:none;font-variant-caps:normal;font-variant-numeric:normal;font-variant-east-asian:normal;text-align:start;writing-mode:lr-tb;direction:ltr;text-anchor:start;fill:#0679ee;fill-opacity:1;fill-rule:evenodd;stroke:#000000;stroke-width:0.291649;stroke-dasharray:none;stroke-opacity:1;paint-order:fill markers stroke"
       x="46.400299"
       y="384.69708"
       id="text19"
       transform="scale(0.88737735,1.1269163)"><tspan
         sodipodi:role="line"
         id="tspan19"
         style="font-style:normal;font-variant:normal;font-weight:normal;font-stretch:normal;font-size:137.183px;font-family:Arial;-inkscape-font-specification:'Arial, Normal';font-variant-ligatures:none;font-variant-caps:normal;font-variant-numeric:normal;font-variant-east-asian:normal;stroke-width:0.291649"
         x="46.400299"
         y="384.69708">CR444WL 2025</tspan></text></g></svg>
